<?xml version="1.0" standalone="no"?>
<!DOCTYPE svg PUBLIC "-//W3C//DTD SVG 20010904//EN"
 "http://www.w3.org/TR/2001/REC-SVG-20010904/DTD/svg10.dtd">
<svg version="1.0" xmlns="http://www.w3.org/2000/svg"
 width="383.000000pt" height="349.000000pt" viewBox="0 0 383.000000 349.000000"
 preserveAspectRatio="xMidYMid meet">
<metadata>
Created by potrace 1.16, written by Peter Selinger 2001-2019
</metadata>
<g transform="translate(0.000000,349.000000) scale(0.100000,-0.100000)"
fill="#000000" stroke="none">
<path d="M1854 3330 c-31 -12 -72 -66 -80 -104 -12 -65 23 -125 87 -150 119
-48 229 73 173 190 -29 61 -113 91 -180 64z"/>
<path d="M961 3223 c-99 -52 -105 -178 -11 -241 83 -56 198 2 207 105 9 108
-102 185 -196 136z"/>
<path d="M2741 3169 c-33 -17 -48 -33 -63 -67 -25 -57 -18 -102 26 -149 59
-65 171 -55 216 20 73 119 -55 258 -179 196z"/>
<path d="M213 2850 c-63 -38 -84 -98 -58 -165 41 -110 177 -124 242 -26 79
117 -63 265 -184 191z"/>
<path d="M3484 2861 c-27 -12 -72 -66 -80 -97 -16 -64 28 -143 92 -164 100
-33 200 56 180 162 -4 20 -21 48 -41 68 -27 26 -44 34 -82 36 -26 2 -57 0 -69
-5z"/>
<path d="M1910 2820 c-1 -3 -55 -266 -119 -585 l-117 -580 -81 -3 -81 -3 -116
293 c-63 161 -158 401 -210 533 l-95 240 0 -532 -1 -533 -99 0 c-74 0 -102 4
-111 15 -6 8 -113 173 -236 367 -123 193 -224 344 -224 334 0 -9 25 -165 55
-346 30 -181 55 -338 55 -349 0 -14 -6 -21 -20 -21 -17 0 -20 -7 -20 -40 0
-37 2 -40 19 -30 11 5 24 10 30 10 22 0 10 -48 -21 -91 l-32 -44 -4 -607 c-3
-387 -1 -608 5 -608 6 0 23 11 39 25 15 13 30 22 32 20 2 -2 -7 -50 -21 -107
-14 -57 -28 -120 -31 -140 l-7 -38 1447 0 1446 0 -6 608 c-3 334 -8 626 -12
650 -5 38 -8 41 -19 26 -11 -15 -14 -4 -24 72 -7 49 -21 126 -32 170 l-20 81
61 364 c33 200 63 375 66 389 5 22 4 23 -9 10 -8 -8 -112 -170 -232 -360 -121
-190 -224 -348 -229 -353 -6 -4 -54 -6 -106 -5 l-95 3 -5 504 -5 503 -205
-503 -205 -504 -83 -3 c-45 -2 -82 -2 -82 0 -10 55 -239 1171 -240 1168z
m-465 -1945 c3 -14 7 -36 10 -49 8 -41 51 -82 99 -96 38 -10 49 -10 80 5 20
10 36 20 36 24 0 3 11 20 24 36 l24 30 12 -27 c29 -62 -60 -116 -175 -105
-120 11 -205 80 -205 166 0 32 9 39 57 40 27 1 34 -3 38 -24z"/>
</g>
</svg>
