<?xml version="1.0" standalone="no"?>
<!DOCTYPE svg PUBLIC "-//W3C//DTD SVG 20010904//EN"
 "http://www.w3.org/TR/2001/REC-SVG-20010904/DTD/svg10.dtd">
<svg version="1.0" xmlns="http://www.w3.org/2000/svg"
 width="360.000000pt" height="364.000000pt" viewBox="0 0 360.000000 364.000000"
 preserveAspectRatio="xMidYMid meet">
<metadata>
Created by potrace 1.16, written by Peter Selinger 2001-2019
</metadata>
<g transform="translate(0.000000,364.000000) scale(0.100000,-0.100000)"
fill="#000000" stroke="none">
<path d="M1130 3588 c-144 -100 -241 -219 -340 -418 -18 -36 -48 -89 -68 -119
-32 -46 -37 -62 -39 -115 -1 -33 -7 -86 -13 -116 -10 -46 -18 -59 -49 -82 -57
-41 -104 -136 -105 -212 -1 -59 0 -61 27 -64 18 -2 29 2 33 12 9 25 19 19 32
-18 7 -19 21 -37 30 -40 9 -3 25 -26 35 -51 24 -56 70 -102 119 -117 32 -9 40
-9 51 4 18 23 57 33 57 15 0 -8 15 -37 33 -63 30 -45 32 -53 25 -94 -5 -25 -7
-92 -5 -150 3 -82 10 -121 31 -178 37 -99 31 -127 -32 -146 -39 -12 -49 -12
-61 -1 -12 12 -19 10 -47 -11 -37 -29 -58 -75 -74 -165 -6 -35 -20 -88 -31
-117 -21 -57 -24 -117 -10 -172 5 -19 12 -111 15 -204 7 -184 22 -349 37 -408
l10 -38 1010 0 1010 0 8 21 c4 12 3 47 -2 78 -5 31 -5 88 -1 126 14 137 5 361
-21 495 -13 69 -27 148 -30 175 -9 69 -30 138 -51 170 -15 23 -19 24 -26 11
-8 -14 -13 -13 -42 9 -18 14 -46 30 -63 35 l-30 11 33 62 c18 34 40 90 48 123
21 80 20 226 0 316 l-16 70 38 82 c44 96 43 94 53 78 11 -18 36 -5 66 34 65
85 80 174 59 356 -23 214 -47 293 -136 463 -69 130 -151 230 -267 327 -87 72
-98 78 -139 78 l-46 0 75 -51 c221 -151 407 -424 443 -649 l6 -35 -15 35 c-15
35 -15 35 -11 5 2 -16 13 -64 24 -106 28 -105 38 -228 22 -284 -13 -45 -40
-81 -40 -54 0 8 -5 77 -10 154 -9 144 -33 253 -71 327 -30 58 -33 40 -5 -23
60 -131 81 -302 51 -433 -18 -83 -40 -116 -79 -116 -34 0 -38 21 -25 134 13
108 6 349 -11 401 -8 26 -9 23 -5 -20 2 -27 6 -81 9 -120 4 -64 3 -61 -14 35
-26 149 -40 199 -60 210 -9 5 -23 30 -30 55 -7 25 -17 48 -21 51 -12 7 -11 0
7 -46 32 -81 4 -50 -43 45 -26 54 -67 120 -91 146 -43 48 -40 64 8 39 77 -41
-132 142 -221 195 -30 17 -70 37 -89 45 -19 7 -49 24 -67 37 l-32 23 -373 -1
-373 0 -75 -51z m880 -124 c58 -23 165 -89 210 -128 27 -24 30 -25 12 -5 -30
34 -28 40 11 32 63 -11 133 -86 163 -173 33 -95 24 -235 -18 -293 -11 -15 -13
-3 -13 77 0 75 -3 98 -17 113 -10 11 -19 30 -19 44 -1 13 -5 -13 -10 -57 -4
-50 -16 -98 -29 -124 -23 -46 -33 -46 -36 0 -4 55 -43 116 -115 180 l-70 62
29 -48 c38 -66 62 -138 62 -191 0 -45 -12 -53 -48 -33 -9 5 -42 21 -73 35 -87
39 -127 84 -173 195 -3 8 -3 0 0 -18 8 -44 51 -150 76 -184 16 -23 17 -28 4
-28 -30 0 -188 153 -222 216 -17 32 -34 45 -34 26 0 -26 48 -145 76 -189 19
-29 32 -53 30 -53 -2 0 -23 26 -47 58 -70 94 -78 95 -16 3 l30 -45 -36 28
c-100 76 -148 160 -157 271 l-7 80 -1 -77 c-2 -62 -5 -78 -17 -78 -8 0 -15 5
-15 11 0 5 -5 7 -11 3 -20 -12 -3 -90 39 -173 l41 -80 -47 31 c-47 31 -84 90
-123 196 -9 25 -14 30 -21 20 -7 -9 -8 -7 -5 9 3 14 -2 28 -14 39 -20 18 -27
6 -7 -14 6 -6 8 -15 4 -19 -13 -13 -24 20 -23 68 0 26 5 47 11 46 5 -1 14 7
20 18 7 11 18 21 26 23 8 2 16 7 18 12 17 46 114 104 212 127 81 19 292 11
350 -13z m-581 -579 l22 -19 -33 -12 -33 -11 41 -7 c22 -4 45 -6 50 -5 5 2 37
-11 71 -29 99 -51 221 -61 291 -23 17 9 29 8 56 -3 19 -8 44 -12 55 -9 12 3
21 1 21 -6 0 -6 -3 -11 -7 -11 -5 0 -19 -9 -33 -20 l-25 -20 40 16 40 16 -42
-37 c-26 -22 -43 -45 -43 -58 0 -17 2 -19 9 -8 7 11 10 5 13 -22 4 -53 22 -51
29 3 5 38 6 40 7 12 2 -31 3 -32 25 -18 25 16 73 18 100 5 15 -9 17 -4 18 33
2 43 2 43 8 -9 6 -51 33 -95 48 -79 4 4 8 36 8 72 0 73 9 77 43 15 35 -62 11
-120 -66 -161 -42 -22 -25 -25 29 -6 20 7 51 12 68 11 31 -2 41 8 21 20 -6 4
-8 11 -4 16 3 5 8 26 10 46 5 40 11 53 25 53 25 0 -4 -145 -52 -256 -28 -68
-107 -162 -169 -204 -81 -55 -208 -116 -268 -129 -46 -9 -61 -8 -114 10 -104
35 -266 126 -331 188 -33 30 -76 110 -102 190 -15 46 -15 55 -3 67 12 12 19
12 53 -5 22 -10 56 -22 75 -25 34 -6 34 -6 -12 18 -54 29 -88 69 -88 102 0 30
28 88 49 101 14 9 16 5 12 -34 -1 -24 0 -60 4 -80 l6 -36 20 32 c10 17 20 44
20 59 2 24 2 24 6 4 3 -14 9 -20 16 -15 19 11 98 13 119 2 14 -8 18 -6 19 8 1
10 4 5 8 -11 3 -16 12 -31 20 -34 11 -4 13 4 8 39 -5 41 -5 43 8 19 l14 -25
-2 24 c-1 14 -16 40 -35 58 -36 37 -35 40 8 18 17 -9 30 -13 30 -10 0 9 -99
55 -119 55 -11 0 -23 5 -26 10 -9 14 34 12 88 -4 26 -8 45 -11 42 -6 -10 16
-94 32 -137 25 -63 -10 -161 -46 -175 -64 -7 -9 -13 -11 -13 -5 0 6 6 17 14
24 8 6 12 18 9 25 -3 9 5 19 20 26 34 16 46 43 14 33 -12 -3 -27 -10 -33 -15
-6 -5 0 28 13 72 12 45 23 95 23 113 0 30 2 29 39 -29 21 -33 48 -69 60 -80z
m1061 -240 c1 -153 -23 -290 -69 -393 -16 -37 -37 -89 -47 -116 -18 -50 -91
-167 -139 -221 -20 -23 -18 -17 9 28 20 31 36 60 36 62 0 3 34 78 76 166 41
89 73 163 71 165 -2 3 -19 -30 -37 -71 -36 -83 -51 -93 -26 -18 17 54 51 179
71 263 8 30 17 100 21 155 4 55 8 107 10 115 1 8 3 29 4 45 5 73 19 -56 20
-180z m-1315 -5 c-3 -5 -2 -10 4 -10 5 0 17 -35 27 -77 41 -187 125 -370 232
-511 71 -94 55 -93 -40 1 -102 100 -182 275 -223 492 -18 95 -19 115 -4 115 5
0 7 -4 4 -10z m547 -620 c65 -12 88 -7 191 35 15 6 17 1 17 -38 0 -58 19 -147
31 -147 17 0 9 -36 -19 -81 -49 -75 -57 -79 -164 -81 -107 -1 -116 2 -197 85
-33 35 -42 50 -36 66 3 12 13 21 20 21 18 0 29 76 21 141 l-7 50 39 -20 c22
-11 68 -25 104 -31z m-6 -330 c36 0 45 -3 34 -10 -8 -6 -27 -7 -41 -4 -21 4
-32 -2 -53 -26 -14 -17 -26 -35 -26 -38 -1 -4 -16 -25 -34 -46 -32 -38 -35
-39 -64 -27 -22 9 -40 31 -66 81 -41 78 -40 74 -22 93 8 7 29 37 46 66 l32 52
73 -70 c70 -68 75 -71 121 -71z m498 99 c33 -38 40 -68 32 -126 -6 -47 -69
-177 -110 -228 l-24 -30 -58 28 c-57 27 -60 31 -93 105 -44 102 -58 122 -81
122 -30 0 -24 16 13 39 18 11 42 33 54 50 20 27 25 28 51 19 37 -14 92 -3 133
26 45 32 53 31 83 -5z m-947 -152 c2 -83 12 -175 32 -287 36 -203 40 -170 6
47 -30 190 -30 197 -6 151 10 -21 37 -59 59 -86 l41 -49 -36 -30 c-35 -28 -36
-31 -24 -60 7 -17 23 -41 37 -54 20 -19 27 -21 49 -11 39 18 45 15 45 -22 0
-19 4 -37 8 -40 5 -3 7 16 4 43 l-4 47 62 37 c42 25 60 32 56 21 -3 -8 -21
-79 -40 -157 -19 -78 -38 -160 -44 -182 l-10 -40 -2 55 c-1 30 -5 80 -10 110
-4 32 -5 -11 -2 -102 l5 -158 -55 0 -55 0 -10 58 -10 57 -2 -57 -1 -58 -39 0
c-21 0 -43 6 -49 13 -5 6 -15 56 -21 109 -6 53 -22 157 -36 230 -44 241 -66
467 -47 494 6 8 72 39 92 43 3 1 6 -54 7 -122z m1064 96 c4 -5 12 -24 18 -43
l11 -35 -6 38 c-4 28 -1 37 9 37 28 0 26 -65 -10 -330 -22 -166 -30 -259 -21
-273 4 -7 8 12 8 42 0 50 1 53 23 47 12 -3 29 -6 38 -6 8 0 24 -6 34 -14 16
-12 17 -16 6 -30 -9 -11 -11 -29 -7 -57 l7 -41 -33 7 c-18 4 -39 12 -45 17 -9
7 -13 7 -13 -1 0 -12 6 -15 55 -26 27 -7 28 -8 10 -15 -11 -5 -15 -9 -8 -9 8
-1 7 -10 -4 -32 -8 -16 -13 -42 -10 -55 4 -22 2 -25 -17 -20 -11 3 -26 6 -32
6 -6 0 -11 11 -11 25 0 13 3 22 8 19 5 -3 6 2 3 10 -11 28 -36 19 -34 -11 1
-16 1 -30 0 -33 -1 -3 -3 -13 -5 -24 -6 -29 -25 -44 -26 -21 0 11 -3 14 -6 7
-2 -6 -10 -9 -16 -5 -7 3 -9 3 -5 -2 4 -4 3 -14 -2 -20 -7 -8 -7 -21 -1 -36 9
-23 10 -23 10 -3 1 15 9 24 26 28 15 4 27 16 31 31 7 27 26 31 67 16 24 -9 28
-32 18 -108 -2 -22 -45 -37 -118 -43 -66 -5 -73 -3 -76 15 -2 11 -5 3 -6 -17
0 -20 -5 -40 -11 -43 -10 -6 -119 11 -128 20 -3 3 -7 30 -10 60 l-4 55 70 0
c65 0 71 -2 75 -22 4 -19 5 -18 6 5 0 18 6 27 14 24 7 -2 11 -16 9 -33 -3 -23
-1 -27 9 -17 11 11 10 22 -4 60 -18 51 -21 82 -11 132 6 27 9 30 22 19 13 -11
13 -9 -1 12 -9 13 -17 41 -17 62 0 21 -5 38 -11 38 -6 0 -8 -7 -5 -16 6 -15 4
-15 -11 -3 -11 9 -14 10 -9 2 4 -7 2 -13 -3 -13 -19 0 -12 -27 12 -43 21 -15
15 -16 -90 -16 l-112 1 -11 56 c-6 32 -20 89 -31 128 -10 38 -19 85 -19 102
l0 32 68 -43 67 -44 6 -109 5 -109 2 87 c2 108 5 116 40 110 35 -5 52 15 59
67 5 35 2 41 -21 53 l-26 14 20 22 c11 12 36 47 55 79 l35 58 -5 -65 c-7 -91
2 -63 15 45 6 50 14 113 19 140 5 29 5 57 0 67 -8 15 -5 16 23 7 17 -5 35 -12
39 -16z m136 -271 l43 -18 -28 -39 c-15 -22 -30 -42 -35 -43 -4 -2 2 -11 13
-20 19 -16 19 -19 4 -62 -9 -25 -16 -46 -17 -47 -1 -1 -25 6 -52 15 l-50 17 7
43 c9 56 12 59 50 55 l33 -3 -32 10 c-35 11 -38 22 -27 79 8 36 26 39 91 13z
m-396 -462 l6 -35 2 35 1 35 19 -41 c10 -23 33 -51 50 -63 26 -19 29 -26 21
-42 -8 -14 -21 -19 -50 -19 -36 0 -40 3 -40 25 0 14 -4 25 -10 25 -5 0 -10
-11 -10 -25 0 -14 -3 -25 -7 -25 -20 1 -30 19 -37 60 -3 25 -9 60 -13 78 -5
33 -5 33 28 30 30 -3 35 -7 40 -38z m-604 -196 c-2 -30 -8 -59 -13 -64 -5 -4
-35 -11 -66 -15 l-58 -7 0 71 0 71 70 0 71 0 -4 -56z m367 24 c12 -81 15 -128
8 -128 -5 0 -17 7 -28 15 -22 17 -96 20 -124 5 -24 -13 -32 10 -28 83 l3 54
82 2 82 2 5 -33z"/>
<path d="M1749 465 c-162 -85 -338 -110 -859 -125 -462 -13 -570 -34 -674
-130 -25 -24 -46 -46 -46 -51 0 -22 75 -20 168 4 160 43 229 47 696 47 488 -1
560 4 704 53 60 20 64 20 110 4 147 -52 222 -57 832 -61 454 -3 447 -3 616
-51 42 -12 74 -15 100 -10 l39 7 -40 34 c-63 53 -187 113 -267 130 -47 9 -194
18 -418 24 -356 10 -492 20 -619 46 -79 16 -193 55 -253 85 -44 22 -33 23 -89
-6z"/>
</g>
</svg>
