<?xml version="1.0" standalone="no"?>
<!DOCTYPE svg PUBLIC "-//W3C//DTD SVG 20010904//EN"
 "http://www.w3.org/TR/2001/REC-SVG-20010904/DTD/svg10.dtd">
<svg version="1.0" xmlns="http://www.w3.org/2000/svg"
 width="386.000000pt" height="389.000000pt" viewBox="0 0 386.000000 389.000000"
 preserveAspectRatio="xMidYMid meet">
<metadata>
Created by potrace 1.16, written by Peter Selinger 2001-2019
</metadata>
<g transform="translate(0.000000,389.000000) scale(0.100000,-0.100000)"
fill="#000000" stroke="none">
<path d="M1285 3880 c3 -5 -2 -10 -13 -10 -10 0 -27 -9 -37 -20 -18 -19 -18
-23 -1 -93 9 -39 22 -97 28 -127 13 -70 24 -83 65 -78 25 3 33 0 33 -12 0 -21
20 -40 42 -40 17 0 18 -6 12 -52 -4 -29 -8 -55 -10 -57 -2 -2 -41 -5 -86 -6
-84 -1 -190 -27 -273 -66 -97 -45 -186 -169 -205 -283 -5 -30 -14 -64 -19 -75
-22 -39 -2 -121 31 -134 7 -3 -47 -6 -119 -7 -170 -3 -158 -2 -358 -38 -226
-42 -261 -49 -322 -68 -50 -16 -53 -19 -53 -51 l0 -33 38 16 c67 29 202 63
300 75 53 6 124 16 157 20 121 18 316 22 389 9 174 -30 260 -79 211 -120 -12
-10 -12 -16 -3 -34 7 -11 13 -57 13 -101 1 -54 6 -90 17 -111 26 -47 32 -230
10 -275 -10 -21 -26 -35 -39 -37 -21 -3 -22 -5 -9 -30 37 -73 38 -118 4 -230
-16 -55 -87 -169 -126 -203 -85 -75 -230 -108 -313 -72 -83 37 -143 104 -159
178 -3 19 -13 31 -25 34 -18 3 -19 2 -5 -15 9 -11 26 -46 39 -79 13 -33 37
-77 53 -98 17 -21 26 -42 22 -46 -5 -4 -36 -28 -69 -53 -62 -47 -101 -85 -94
-92 2 -2 49 30 104 71 97 72 101 74 140 66 63 -13 147 -8 192 10 28 11 44 13
49 6 3 -6 5 -52 3 -102 -2 -59 1 -100 9 -114 7 -12 12 -37 12 -56 0 -19 4 -47
9 -63 5 -16 12 -55 15 -86 l6 -57 -83 -41 c-45 -22 -89 -40 -98 -40 -8 0 -43
-14 -78 -31 -35 -17 -91 -39 -125 -49 -34 -9 -81 -26 -106 -37 -25 -12 -60
-24 -77 -28 -21 -4 -48 -24 -78 -57 -25 -28 -45 -46 -45 -42 0 8 134 190 180
243 11 13 18 26 15 29 -9 9 -52 -27 -86 -73 -18 -26 -50 -66 -70 -89 -93 -107
-256 -398 -284 -509 -10 -37 -15 -105 -15 -187 l0 -130 31 0 31 0 -6 82 c-4
46 -9 99 -12 119 -6 43 15 132 55 226 30 69 115 182 139 183 8 0 12 -20 12
-67 0 -36 5 -96 10 -132 17 -112 32 -194 40 -231 10 -39 26 -111 35 -152 3
-16 10 -28 16 -28 12 0 12 1 -21 140 -50 212 -65 330 -55 437 l7 75 69 79 c39
43 76 79 84 79 15 0 158 53 187 70 9 5 35 13 58 16 39 6 40 6 40 -23 0 -16 -4
-33 -9 -39 -29 -28 -38 -224 -21 -409 6 -60 15 -150 20 -200 15 -156 30 -225
49 -225 15 0 16 8 9 78 -8 74 -29 203 -48 287 -5 22 -14 90 -21 150 -10 99 -9
121 10 229 24 134 42 172 99 204 45 25 140 43 128 24 -4 -7 -3 -12 3 -12 5 0
11 5 13 12 7 20 24 1 38 -41 12 -38 12 -43 -13 -78 -40 -58 -47 -88 -48 -184
0 -48 -7 -111 -15 -141 -16 -61 -19 -322 -5 -378 5 -19 12 -61 16 -92 6 -58 7
-58 39 -58 l33 0 -8 43 c-17 82 -39 273 -39 333 0 64 15 124 32 124 9 0 90
-62 161 -122 20 -18 46 -37 56 -42 15 -7 20 -22 24 -85 6 -79 16 -136 36 -208
10 -36 16 -43 37 -43 27 0 27 2 -2 104 -18 64 -19 199 -1 194 6 -3 13 -16 13
-29 12 -223 20 -262 52 -267 25 -4 28 15 13 64 -16 49 -19 154 -5 154 17 0
144 -178 144 -202 0 -15 8 -18 50 -18 l51 0 -65 61 c-36 33 -75 77 -87 97 -12
21 -30 46 -40 57 -22 25 -93 138 -117 185 -21 41 -122 200 -128 200 -8 0 39
-99 78 -163 63 -104 25 -113 -82 -20 -25 21 -66 52 -92 68 -27 17 -57 47 -70
70 -20 36 -23 53 -23 157 0 95 3 120 16 134 15 15 18 14 38 -7 11 -13 21 -33
21 -45 0 -12 7 -27 15 -34 8 -7 15 -18 15 -25 0 -6 9 -20 20 -30 28 -25 25
-13 -15 64 -47 91 -80 183 -122 341 -31 117 -36 155 -41 282 l-4 148 62 67
c40 42 76 94 98 140 32 68 35 83 40 191 5 108 8 123 40 190 38 78 95 139 202
212 64 43 228 100 286 98 28 -1 53 7 89 30 82 51 187 73 355 75 163 2 190 -3
320 -65 107 -50 202 -114 258 -171 40 -41 44 -49 48 -108 9 -133 63 -224 170
-285 66 -37 102 -71 126 -119 26 -52 48 -126 42 -137 -10 -15 -24 3 -24 30 0
15 -4 22 -9 17 -5 -6 -4 -36 2 -73 14 -80 5 -91 -55 -73 -97 29 -93 24 -128
156 -29 107 -80 221 -137 305 -52 77 -148 178 -158 168 -3 -3 17 -33 45 -67
28 -34 73 -103 99 -154 26 -51 52 -101 58 -112 20 -35 73 -193 73 -214 0 -15
-46 -7 -105 19 -206 91 -264 128 -371 234 -40 39 -86 94 -104 121 -19 30 -29
40 -25 25 4 -14 18 -42 31 -62 36 -56 198 -218 217 -218 25 0 207 -121 207
-137 0 -17 -91 -18 -108 -1 -7 7 -16 8 -24 2 -7 -6 -30 -16 -51 -23 -45 -15
-80 -6 -177 47 -135 73 -235 164 -343 312 -10 14 -16 18 -13 9 2 -9 45 -78 95
-154 50 -76 91 -145 91 -155 0 -9 9 -25 21 -36 11 -10 25 -27 30 -37 9 -16 6
-17 -33 -11 -47 7 -158 36 -198 52 -44 17 -223 157 -261 204 -44 53 -79 119
-79 150 0 13 -5 30 -10 38 -8 12 -10 9 -10 -13 0 -42 58 -153 111 -211 25 -28
71 -85 102 -126 31 -41 78 -99 103 -128 53 -59 46 -64 -46 -32 -30 10 -56 17
-58 16 -1 -2 13 -13 33 -25 58 -34 36 -44 -79 -39 -87 4 -110 9 -166 36 -165
79 -260 225 -276 422 -4 47 -10 92 -15 100 -11 20 -12 -175 0 -198 4 -9 16
-31 25 -49 20 -39 20 -82 1 -157 -8 -31 -22 -92 -31 -134 -9 -42 -22 -90 -29
-107 -7 -16 -16 -60 -19 -97 -4 -37 -10 -78 -15 -90 -8 -21 -9 -20 -16 13 -3
20 -6 42 -5 50 5 32 -1 69 -10 69 -6 0 -10 -26 -10 -59 0 -33 -3 -67 -7 -76
-5 -15 -8 -15 -18 5 -19 35 -12 -106 8 -150 8 -19 20 -55 27 -80 16 -63 70
-237 87 -285 8 -22 22 -60 30 -85 24 -71 151 -318 203 -395 25 -38 64 -97 86
-130 36 -54 43 -60 78 -63 l39 -3 -16 25 c-25 37 -22 60 6 52 12 -4 39 -10 60
-13 20 -3 37 -10 37 -14 0 -5 12 -9 26 -9 17 0 28 -6 31 -20 8 -29 88 -29 96
0 6 22 26 21 121 -6 30 -8 97 -14 165 -14 l116 0 59 40 c32 22 63 40 68 40 6
0 8 -18 6 -40 l-4 -40 48 0 c46 0 48 1 48 29 0 17 5 33 10 36 6 3 10 19 10 34
0 29 16 51 38 51 8 0 34 18 59 40 50 43 70 51 53 21 -21 -39 -4 -131 25 -131
16 0 35 21 35 40 0 9 9 33 19 54 11 20 25 52 32 69 l12 32 8 -45 c4 -25 19
-78 33 -119 14 -41 26 -83 26 -93 0 -14 8 -18 40 -18 37 0 39 1 31 23 -26 64
-111 348 -111 368 0 28 34 106 57 131 9 10 23 18 32 18 9 0 38 11 65 25 27 14
55 25 62 25 7 0 19 12 26 27 15 32 27 32 48 -2 12 -20 12 -27 2 -37 -11 -11
-16 -10 -26 5 -18 24 -26 21 -26 -8 0 -18 5 -25 18 -25 29 0 54 -34 47 -63 -4
-14 -2 -27 3 -31 11 -6 4 -54 -9 -62 -5 -3 -9 -14 -9 -25 0 -13 7 -19 23 -19
19 -1 20 -2 5 -11 -9 -5 -15 -16 -12 -23 3 -9 -3 -17 -15 -21 -23 -7 -27 -20
-10 -31 6 -3 8 -17 4 -31 -4 -16 1 -37 15 -60 13 -23 18 -43 14 -60 -5 -18 -2
-30 8 -37 8 -6 14 -24 14 -41 l-1 -30 92 -3 91 -3 -15 48 c-8 26 -17 59 -20
73 -2 14 -8 34 -13 45 -8 22 -24 77 -39 140 -6 22 -21 121 -35 220 -14 99 -32
203 -40 232 -13 48 -12 58 11 151 l26 100 -22 94 c-25 107 -44 149 -35 76 9
-63 -12 -65 -50 -6 -32 48 -44 102 -28 121 7 8 7 18 2 27 -19 30 -9 100 14
100 22 0 154 -77 181 -106 6 -5 30 -23 54 -39 47 -32 75 -67 78 -100 1 -11 6
-41 12 -66 5 -25 11 -117 12 -205 1 -87 4 -184 7 -214 6 -54 6 -55 14 -20 5
19 11 121 15 225 3 105 10 200 14 213 8 20 11 21 29 10 11 -7 20 -17 20 -21 0
-5 12 -18 26 -30 29 -23 84 -133 84 -169 0 -12 7 -50 16 -85 11 -43 13 -68 6
-76 -6 -7 -11 -82 -12 -172 -2 -172 -4 -231 -14 -311 -4 -29 -8 -97 -10 -153
l-4 -101 64 0 64 0 0 325 c0 341 -1 352 -52 520 -60 203 -75 232 -155 316 -93
97 -332 258 -423 284 -48 14 -60 34 -60 96 0 32 -4 68 -9 81 -17 46 -30 115
-24 136 4 19 13 22 52 22 25 0 64 9 86 19 40 18 120 98 152 152 10 16 22 29
28 29 6 0 47 -15 91 -34 89 -36 153 -77 199 -126 17 -18 49 -45 73 -61 l42
-30 0 25 c0 51 -233 223 -387 286 -28 12 -29 39 -3 90 11 22 20 49 20 61 0 56
-90 117 -157 104 -26 -5 -41 1 -80 28 -26 19 -67 45 -91 58 -28 15 -44 32 -48
49 -3 14 -10 36 -15 49 -5 13 -7 26 -5 29 3 2 50 -3 106 -12 90 -15 207 -56
289 -101 41 -23 172 -75 187 -75 41 0 -28 56 -136 110 -36 18 -72 38 -80 45
-8 6 -53 24 -100 40 -71 23 -101 27 -183 26 -53 0 -106 -5 -117 -11 -11 -6
-30 -8 -44 -4 -36 9 -101 -29 -114 -65 -8 -21 -25 -37 -62 -56 -29 -15 -59
-39 -68 -56 -9 -16 -25 -29 -35 -29 -25 0 -102 74 -93 89 12 19 97 58 179 82
43 12 75 24 72 27 -9 10 -141 -31 -207 -64 -75 -38 -99 -41 -118 -19 -11 14
-7 22 26 56 21 22 54 49 72 61 18 11 37 30 44 41 8 15 -2 10 -30 -15 -36 -33
-82 -51 -82 -33 0 32 98 138 190 206 104 76 184 108 295 119 235 22 378 7 545
-60 84 -33 120 -51 178 -87 l52 -34 0 38 c0 34 -4 41 -42 64 -53 31 -207 93
-268 107 -25 6 -75 18 -112 26 -42 10 -115 16 -195 16 -101 0 -142 5 -193 21
-135 42 -307 43 -420 1 -48 -17 -173 -93 -185 -111 -3 -6 -15 -11 -25 -11 -14
0 -21 10 -26 35 -3 19 -12 39 -20 46 -21 17 -17 45 12 94 19 33 28 67 35 142
6 54 8 110 5 126 -3 15 -1 38 5 50 15 32 -11 93 -46 109 -15 7 -43 27 -63 45
-20 18 -61 43 -91 56 -51 20 -70 22 -214 19 -146 -2 -162 -4 -207 -27 -28 -14
-56 -34 -62 -45 -17 -27 -21 -26 -46 19 -13 22 -31 43 -42 46 -26 8 -25 18 3
30 30 13 34 56 7 80 l-21 19 33 11 c41 13 41 33 2 128 l-28 67 -92 0 c-84 0
-93 -2 -99 -20 -3 -11 -3 -24 0 -30 9 -15 -24 -25 -38 -11 -9 10 -8 15 6 25
33 25 17 33 -69 35 -55 1 -83 -2 -79 -9z m138 -111 c10 -11 26 -19 37 -19 10
0 29 -15 41 -32 13 -18 32 -39 42 -47 14 -10 16 -16 7 -25 -8 -7 -14 -7 -16
-1 -3 6 -9 17 -14 25 -14 22 -46 -1 -42 -30 2 -23 -13 -50 -29 -50 -5 0 -6 34
-2 75 5 68 4 75 -12 75 -10 0 -35 -18 -57 -41 -21 -22 -42 -38 -47 -35 -5 3
-12 23 -15 43 -4 21 -9 50 -12 65 l-5 27 53 -6 c32 -3 60 -13 71 -24z m570
-288 c25 -11 52 -30 61 -42 15 -21 14 -24 -4 -44 -11 -12 -20 -34 -20 -49 0
-36 -18 -30 -47 15 -36 56 -74 99 -89 99 -14 0 -19 22 -7 33 12 13 61 7 106
-12z m-343 -146 c14 -44 9 -53 -30 -47 -59 8 -80 -41 -34 -77 33 -26 39 -26
64 -1 11 11 22 20 25 20 18 0 59 -273 47 -315 -7 -26 -13 -30 -38 -26 -46 5
-59 17 -74 63 -7 24 -17 48 -20 53 -12 17 -62 158 -69 195 -4 19 -13 45 -19
57 -16 29 -15 78 1 91 6 5 32 17 57 25 55 18 74 10 90 -38z m-375 -15 c3 -5
-3 -41 -15 -78 -11 -38 -20 -79 -20 -91 0 -25 -7 -26 -31 -5 -33 30 -67 -2
-55 -51 7 -27 34 -33 54 -13 19 19 31 -1 51 -83 11 -41 24 -87 30 -102 17 -44
13 -71 -14 -97 l-24 -23 -39 39 c-90 91 -117 305 -54 434 26 52 100 97 117 70z
m1678 -399 c20 -7 37 -16 37 -20 0 -5 -33 -25 -72 -45 -145 -73 -273 -193
-353 -329 -34 -58 -44 -63 -84 -42 -29 14 -31 19 -26 49 5 24 1 45 -14 74 -13
25 -21 60 -21 89 0 46 2 50 63 104 70 63 102 82 197 116 54 19 80 22 150 19
47 -2 102 -9 123 -15z m-958 -143 c-14 -41 -8 -78 14 -102 33 -35 25 -71 -15
-72 -17 -1 -50 -4 -73 -8 -22 -3 -41 -4 -41 -2 0 2 7 20 15 41 18 42 13 66
-22 114 -32 42 -22 51 66 51 61 0 63 -1 56 -22z m-325 -37 c0 -6 -4 -12 -9
-15 -5 -3 -12 -26 -15 -50 -8 -49 3 -81 37 -107 20 -16 19 -17 -19 -29 -68
-22 -216 -81 -292 -117 -79 -37 -96 -37 -114 2 -9 20 -8 28 5 43 22 24 22 58
0 71 -16 9 -15 11 8 33 81 75 109 85 109 39 0 -63 74 -82 113 -30 24 33 16 64
-24 84 -17 9 -29 24 -29 35 0 21 16 28 22 9 2 -7 31 -2 83 14 86 27 125 33
125 18z m1402 -457 c5 -3 8 -16 8 -29 0 -28 24 -39 50 -23 15 10 23 9 40 -7
12 -11 29 -33 37 -49 13 -26 14 -40 1 -110 -2 -13 6 -22 29 -30 45 -16 48 -22
20 -41 -21 -14 -35 -15 -79 -6 -30 5 -73 7 -95 4 -23 -3 -53 -3 -66 1 -35 8
-124 91 -131 122 -4 14 -16 38 -27 53 -11 16 -23 47 -26 71 -6 40 -5 42 15 31
11 -6 24 -16 27 -21 9 -15 43 -12 52 4 15 27 66 47 103 40 19 -3 38 -8 42 -10z
m-1589 -735 c55 -56 90 -84 120 -95 23 -8 51 -18 62 -23 11 -4 54 -23 95 -41
100 -43 123 -48 81 -19 -19 13 -35 29 -35 34 -1 6 47 13 114 16 130 7 170 15
170 34 0 7 -28 33 -63 58 -112 80 -116 104 -10 59 71 -30 192 -62 237 -62 15
0 26 -3 26 -7 -1 -15 -36 -51 -65 -66 l-30 -16 35 -1 c54 -1 70 -18 63 -68 -3
-23 -2 -42 3 -42 5 0 23 24 39 53 40 68 83 90 189 95 96 5 147 -9 204 -55 86
-70 88 -120 10 -200 -23 -24 -37 -43 -30 -43 18 0 132 60 132 70 0 12 31 21
50 15 11 -4 20 -25 28 -69 15 -79 16 -327 1 -398 -18 -90 -50 -221 -61 -253
-38 -103 -220 -287 -408 -412 -104 -68 -128 -77 -200 -69 -214 24 -480 133
-604 247 -95 87 -193 218 -264 352 -57 106 -100 236 -86 258 10 17 46 9 51
-11 4 -15 14 -20 37 -20 18 0 36 -4 41 -9 11 -10 65 -3 65 8 0 4 -15 12 -34
19 -45 17 -126 79 -126 98 0 27 52 118 98 173 77 90 197 127 280 85 43 -21 40
-27 -8 -19 -57 10 -116 -3 -150 -32 -38 -32 -41 -58 -5 -41 14 6 25 15 25 19
0 4 13 14 30 22 26 13 36 13 77 1 27 -8 60 -23 76 -34 30 -23 38 -8 12 26 -23
31 -17 35 20 13 19 -12 35 -17 35 -12 0 17 -27 84 -38 95 -7 7 -12 23 -12 36
0 17 -9 27 -34 37 -19 8 -39 22 -44 31 -7 13 -15 15 -37 7 -36 -12 -41 -26
-13 -38 12 -6 23 -16 26 -22 6 -20 -144 -18 -152 2 -9 25 -36 18 -36 -10 0
-17 -4 -23 -14 -19 -8 3 -31 -12 -54 -36 -38 -40 -62 -46 -62 -15 0 7 -5 15
-11 17 -18 6 1 105 26 132 19 20 20 26 8 30 -12 5 -14 16 -8 54 13 92 27 142
39 142 6 0 46 -36 89 -81z m1562 -234 c0 -153 -5 -205 -41 -410 -35 -205 -42
-200 -36 23 4 177 -4 251 -48 449 -6 23 -10 56 -10 73 l0 31 68 -3 67 -3 0
-160z m179 -188 c15 -20 21 -47 24 -109 l4 -83 -37 -49 c-27 -34 -34 -50 -25
-56 14 -8 -42 -128 -84 -177 -30 -36 -71 -52 -63 -25 18 61 84 235 105 277 25
49 36 117 34 208 -1 54 10 57 42 14z"/>
<path d="M2437 772 c-15 -15 -27 -35 -27 -43 0 -81 -383 -173 -434 -104 -16
23 -119 17 -124 -6 -9 -47 273 -190 372 -189 52 1 118 24 131 46 6 10 18 25
27 35 9 10 24 29 32 42 22 32 87 227 80 238 -10 16 -30 9 -57 -19z m-61 -204
c-7 -38 -15 -47 -24 -31 -9 15 -68 7 -99 -13 -12 -8 -31 -14 -42 -14 -11 0
-27 -3 -36 -7 -15 -5 -14 -8 6 -20 l24 -14 -27 5 c-116 24 -121 30 -56 72 29
19 64 34 78 35 14 0 34 4 45 9 11 5 46 9 79 9 l59 1 -7 -32z"/>
<path d="M3487 2755 c152 -51 199 -79 289 -171 l84 -86 0 35 c0 30 -9 43 -68
98 -55 53 -82 70 -152 96 -74 28 -183 54 -214 52 -6 0 21 -11 61 -24z"/>
</g>
</svg>
