<?xml version="1.0" standalone="no"?>
<!DOCTYPE svg PUBLIC "-//W3C//DTD SVG 20010904//EN"
 "http://www.w3.org/TR/2001/REC-SVG-20010904/DTD/svg10.dtd">
<svg version="1.0" xmlns="http://www.w3.org/2000/svg"
 width="298.000000pt" height="330.000000pt" viewBox="0 0 298.000000 330.000000"
 preserveAspectRatio="xMidYMid meet">
<metadata>
Created by potrace 1.16, written by Peter Selinger 2001-2019
</metadata>
<g transform="translate(0.000000,330.000000) scale(0.100000,-0.100000)"
fill="#000000" stroke="none">
<path d="M350 2960 l0 -190 1140 0 1140 0 0 190 0 190 -145 0 -145 0 0 -84 c0
-64 -4 -88 -16 -100 -13 -14 -56 -16 -314 -16 -352 0 -330 -8 -330 122 l0 78
-190 0 -190 0 0 -78 c0 -130 22 -122 -330 -122 -258 0 -301 2 -314 16 -12 12
-16 36 -16 100 l0 84 -145 0 -145 0 0 -190z"/>
<path d="M1643 2689 c-21 -21 -15 -26 37 -33 83 -11 184 -50 260 -102 184
-123 414 -454 455 -654 16 -76 32 -259 23 -250 -3 3 -10 41 -16 85 -6 45 -20
101 -31 125 -22 52 -23 70 5 -143 8 -64 13 -168 12 -230 l-3 -112 -30 3 c-16
2 -44 12 -62 23 l-31 19 -1 131 c-2 134 -20 263 -46 321 l-15 33 6 -40 c3 -22
12 -71 19 -110 21 -116 27 -178 15 -170 -5 3 -10 15 -10 25 0 21 -74 167 -96
190 -8 8 -2 -14 14 -50 32 -70 65 -172 76 -232 6 -35 5 -38 -16 -38 -13 0 -64
27 -114 60 -86 56 -138 103 -192 175 l-23 30 17 -34 c9 -19 56 -75 105 -126
l88 -91 -33 -12 c-18 -7 -40 -12 -49 -12 -28 0 -19 -14 21 -33 20 -9 48 -24
62 -32 l25 -15 -32 0 c-54 0 -124 22 -118 38 4 11 -3 12 -34 7 -32 -5 -53 0
-117 29 -95 44 -133 73 -184 138 -22 27 -40 45 -40 39 0 -21 48 -106 87 -157
52 -66 58 -75 39 -68 -9 3 -16 10 -16 15 0 5 -10 9 -22 9 -22 -1 -22 -2 7 -27
l30 -26 -32 6 c-61 12 -188 67 -236 103 -26 19 -61 56 -78 81 -16 26 -29 40
-29 31 0 -42 71 -166 132 -230 42 -45 28 -50 -52 -18 -63 25 -72 25 -41 0 21
-18 21 -20 4 -20 -28 0 -161 38 -197 57 -17 9 -60 43 -95 77 -43 40 -57 50
-43 29 12 -17 43 -49 67 -71 25 -22 45 -44 45 -50 0 -12 89 -44 134 -48 17 -1
58 -7 91 -13 112 -20 249 -9 176 14 -22 7 -111 99 -111 115 0 7 3 10 8 8 128
-65 296 -118 370 -118 l33 0 -18 25 c-10 13 -25 25 -34 25 -14 0 -89 71 -89
84 0 3 24 -5 53 -18 28 -12 60 -26 71 -29 15 -6 16 -10 6 -22 -10 -12 -7 -13
17 -6 45 13 183 -27 183 -53 0 -21 -7 -24 -77 -31 -56 -7 -61 -6 -68 14 -7 24
-25 28 -25 5 0 -8 -16 -22 -35 -30 -19 -7 -51 -21 -72 -29 -49 -21 -36 -29 17
-10 53 19 60 19 60 1 0 -8 -16 -23 -36 -35 -20 -12 -32 -26 -28 -32 3 -6 -5
-23 -20 -38 -25 -26 -25 -27 -3 -25 12 1 38 8 56 17 43 18 63 12 55 -17 -7
-27 22 -58 31 -33 4 8 5 27 3 43 -3 28 -2 29 42 26 31 -2 50 -9 63 -23 17 -21
17 -21 17 11 l0 33 62 -7 c34 -3 66 -10 71 -15 15 -15 -30 -77 -80 -110 -26
-17 -51 -31 -57 -32 -6 0 -22 -2 -36 -4 -14 -2 -51 -7 -83 -11 -39 -4 -54 -10
-45 -15 37 -24 207 4 257 43 13 10 32 18 42 18 11 0 19 6 19 14 0 15 21 26 49
26 13 0 16 9 16 39 0 22 3 42 6 46 4 3 29 8 57 12 l50 6 -10 -54 c-13 -72
-104 -342 -171 -509 -30 -74 -60 -162 -67 -195 -18 -88 -31 -101 -23 -25 3 36
24 135 46 220 87 340 111 469 58 315 -68 -196 -173 -346 -317 -454 -100 -74
-300 -181 -339 -181 -77 0 -376 161 -487 262 -54 49 -129 151 -188 255 -29 51
-61 100 -71 109 -18 16 -19 16 -19 -16 0 -23 4 -31 14 -27 18 7 71 -67 62 -88
-3 -8 -14 -15 -25 -15 -15 0 -21 9 -26 41 -4 22 -9 38 -12 35 -8 -8 26 -192
53 -290 14 -48 23 -91 20 -93 -8 -8 -61 105 -104 222 -22 61 -50 133 -62 160
-29 66 -83 254 -120 414 -34 148 -51 322 -40 401 12 77 11 102 -2 68 -5 -16
-14 -28 -20 -28 -7 0 -6 -5 1 -14 8 -10 9 -37 2 -97 -5 -46 -7 -96 -4 -110 4
-21 -3 -36 -31 -67 -35 -38 -36 -42 -36 -113 1 -41 7 -99 15 -129 14 -55 14
-55 8 50 -3 66 -1 121 6 147 19 71 48 69 56 -3 2 -21 8 -53 14 -71 5 -18 7
-42 4 -54 -3 -11 -1 -24 6 -28 10 -7 32 -88 48 -176 3 -16 9 -34 13 -40 5 -5
20 -43 33 -82 32 -92 14 -99 -37 -16 -19 32 -53 78 -76 103 -22 25 -45 58 -50
75 -10 30 -10 30 -5 -5 3 -19 21 -58 40 -85 19 -28 47 -82 63 -120 16 -39 48
-108 72 -155 51 -102 54 -109 79 -185 21 -66 35 -213 22 -233 -9 -16 -296 -23
-311 -8 -5 5 -73 9 -152 10 l-143 1 -3 -87 -3 -88 1351 0 1351 0 -3 88 -3 87
-156 -2 -157 -2 -6 30 c-3 16 -10 29 -16 29 -13 0 -13 -33 0 -46 15 -15 -93
-39 -116 -26 -11 6 -29 5 -51 -1 -25 -8 -43 -7 -67 1 -18 7 -45 12 -60 12 -22
0 -25 3 -18 18 6 9 13 36 17 59 4 24 11 45 15 48 5 3 12 26 16 50 3 25 14 51
23 58 24 17 61 72 61 90 0 9 -6 18 -12 21 -10 5 -10 7 0 12 6 3 12 14 12 24 0
10 7 33 15 51 14 34 14 34 15 7 0 -16 3 -28 8 -28 8 0 76 139 87 180 11 39 66
119 87 125 29 10 21 40 -14 56 -33 14 -33 14 -39 104 -13 178 -15 651 -3 666
10 12 28 110 29 159 0 8 10 19 23 25 12 5 22 18 22 27 0 21 2 21 -39 7 -37
-13 -37 -13 -102 94 -39 66 -40 69 -24 93 15 24 125 84 153 84 8 0 12 16 12
45 0 25 -4 45 -10 45 -6 0 -10 48 -10 125 l0 125 -417 0 c-230 0 -427 3 -438
6 -11 3 -26 -1 -32 -7z m827 -1615 c9 -10 3 -29 -27 -85 -40 -75 -116 -169
-128 -157 -3 3 9 48 28 100 20 51 43 122 52 158 9 36 21 81 27 100 l12 35 12
-68 c7 -38 18 -75 24 -83z m-1812 -243 c23 -29 57 -95 82 -158 23 -59 69 -164
101 -232 63 -132 63 -141 7 -141 -48 0 -58 9 -58 54 0 125 -34 233 -125 397
-36 65 -65 121 -65 124 0 17 24 -1 58 -44z m242 -116 c23 -36 55 -81 70 -100
22 -27 29 -50 35 -107 4 -40 9 -90 11 -111 4 -40 -9 -77 -26 -77 -6 0 -10 24
-10 53 0 43 -7 64 -41 122 -22 39 -49 79 -60 91 -11 12 -29 56 -41 99 -18 65
-19 78 -7 86 22 14 23 13 69 -56z m1180 -89 c0 -23 -30 -86 -41 -86 -6 0 -8
-9 -4 -20 3 -11 -1 -56 -10 -100 -9 -44 -13 -84 -10 -90 7 -12 -34 -30 -52
-23 -14 6 -16 90 -4 187 6 50 12 63 42 88 19 15 41 35 49 43 18 19 30 19 30 1z
m-851 -195 c24 -22 31 -38 31 -65 l0 -36 -116 0 -116 0 6 31 c3 17 6 47 6 65
l0 34 79 0 c73 0 81 -2 110 -29z m707 -23 c-3 -29 -6 -61 -6 -70 0 -16 -11
-18 -85 -18 l-85 0 0 33 c0 40 8 51 51 82 24 17 48 24 83 25 l49 0 -7 -52z"/>
<path d="M944 1715 c1 -40 -5 -72 -17 -95 -10 -19 -32 -67 -48 -107 -31 -74
-39 -81 -98 -81 l-34 -1 5 100 c3 55 3 98 1 96 -9 -10 -24 -133 -29 -247 -3
-68 -8 -128 -10 -132 -2 -3 0 -9 6 -13 14 -9 13 -55 -2 -55 -7 0 -6 -6 4 -17
8 -10 21 -58 28 -106 7 -48 17 -83 21 -76 4 8 10 6 18 -7 11 -18 12 -18 7 1
-14 57 -36 158 -36 167 0 6 6 6 15 -2 8 -7 15 -18 15 -25 0 -6 11 -17 25 -23
14 -7 28 -19 31 -27 4 -8 12 -15 20 -15 23 0 64 -23 64 -36 0 -8 12 -12 33
-12 17 1 64 -5 103 -12 41 -8 79 -10 90 -5 19 8 18 8 -1 12 -63 12 -106 28
-121 44 -13 15 -19 16 -25 7 -6 -9 -13 -9 -34 2 -40 21 -105 80 -105 95 0 13
70 35 110 35 13 0 24 -8 27 -20 4 -17 7 -17 19 -5 11 10 32 12 87 8 90 -6 137
-25 137 -52 0 -12 5 -21 11 -21 7 0 9 10 5 25 -5 18 -2 25 9 25 16 0 20 12 8
24 -5 4 -8 11 -8 14 -2 25 -33 52 -61 52 -50 0 -90 59 -41 61 18 1 17 2 -8 10
-38 11 -69 3 -42 -12 19 -11 24 -49 5 -49 -6 0 -20 7 -30 17 -11 9 -18 11 -18
5 0 -16 -33 -15 -48 0 -21 21 -13 31 23 25 31 -5 55 6 42 19 -9 10 -112 10
-124 1 -7 -5 -24 -7 -38 -5 -14 3 -28 1 -31 -3 -10 -16 -24 -9 -37 18 l-12 27
-5 -39 c-4 -32 -10 -41 -28 -43 -47 -7 -37 29 47 168 5 8 25 55 44 105 19 49
39 91 45 93 6 2 20 -15 31 -37 34 -66 43 -57 11 11 -17 35 -30 72 -31 83 0 11
-6 36 -13 55 -13 35 -13 35 -12 -25z"/>
</g>
</svg>
