<?xml version="1.0" standalone="no"?>
<!DOCTYPE svg PUBLIC "-//W3C//DTD SVG 20010904//EN"
 "http://www.w3.org/TR/2001/REC-SVG-20010904/DTD/svg10.dtd">
<svg version="1.0" xmlns="http://www.w3.org/2000/svg"
 width="238.000000pt" height="293.000000pt" viewBox="0 0 238.000000 293.000000"
 preserveAspectRatio="xMidYMid meet">
<metadata>
Created by potrace 1.16, written by Peter Selinger 2001-2019
</metadata>
<g transform="translate(0.000000,293.000000) scale(0.100000,-0.100000)"
fill="#000000" stroke="none">
<path d="M690 2874 c-38 -63 -50 -141 -32 -208 10 -34 8 -42 -19 -86 -16 -27
-42 -77 -56 -112 -24 -56 -27 -76 -27 -183 0 -114 2 -124 35 -205 l36 -85 -68
-101 c-114 -171 -199 -363 -199 -452 0 -23 -6 -32 -22 -38 -37 -11 -78 -46
-109 -93 -23 -36 -29 -55 -29 -101 0 -49 4 -60 31 -88 42 -43 96 -50 171 -22
31 11 70 33 86 48 l29 27 12 -105 c18 -152 64 -280 147 -406 41 -62 65 -164
67 -288 l1 -88 -38 -31 c-45 -36 -86 -116 -86 -169 0 -25 8 -45 24 -62 22 -25
28 -26 134 -26 107 0 113 1 155 30 52 35 66 76 65 180 -1 65 30 191 55 224 10
13 19 14 57 5 25 -6 94 -9 155 -7 l109 3 18 -90 c19 -90 19 -105 0 -178 -13
-49 9 -129 41 -152 28 -20 249 -22 265 -2 16 19 25 64 18 91 -8 33 -54 86 -83
97 -20 7 -23 15 -23 57 0 27 13 122 29 212 22 121 35 168 50 184 28 29 98 181
111 240 6 27 14 54 17 60 4 5 8 19 9 30 1 12 7 62 13 111 6 50 14 122 18 160
5 59 8 65 14 41 5 -17 8 -54 7 -83 -2 -77 24 -101 123 -114 108 -14 144 -6
164 37 29 62 29 94 -2 154 -21 40 -38 60 -67 75 -35 18 -44 30 -73 105 -18 47
-33 88 -33 93 0 25 -136 302 -166 337 -56 67 -56 67 -46 102 39 126 44 159 46
275 1 68 -1 126 -5 128 -3 3 -9 24 -13 47 -9 61 -36 139 -58 170 -18 27 -18
28 3 90 29 83 22 125 -32 179 l-39 39 -108 0 c-120 0 -129 -4 -167 -79 -14
-28 -20 -32 -43 -27 -83 19 -177 28 -255 23 -77 -5 -89 -4 -94 11 -4 9 -16 29
-27 45 -20 27 -20 27 -141 27 l-121 0 -34 -56z m207 15 c40 -19 73 -51 98 -94
10 -16 17 -17 99 -5 75 12 89 11 97 -1 13 -21 12 -382 -2 -396 -11 -11 -1 -15
88 -28 84 -13 153 -85 153 -159 -1 -86 -83 -131 -163 -89 -67 34 -78 91 -25
135 28 22 31 30 22 45 -17 28 -95 30 -118 4 -18 -20 -18 -21 13 -48 24 -22 31
-35 31 -65 0 -66 -66 -101 -149 -78 -49 13 -71 42 -72 95 l-1 40 -8 -35 c-7
-29 -2 -47 30 -115 42 -89 94 -145 152 -164 l35 -12 7 -92 c10 -150 6 -371 -7
-379 -7 -4 -25 -8 -42 -8 -81 -1 -205 -104 -238 -196 -10 -29 -20 -96 -24
-156 -5 -92 -3 -113 17 -174 43 -129 136 -233 234 -262 l61 -18 3 -68 3 -69
-73 6 c-40 4 -86 10 -102 13 -27 6 -28 6 -16 -15 9 -19 6 -40 -20 -127 -28
-93 -31 -114 -26 -177 7 -69 6 -73 -21 -104 -40 -45 -149 -79 -198 -63 -50 17
-70 50 -56 93 17 52 92 114 123 102 15 -6 14 111 -2 265 -5 55 -5 87 2 91 13
8 -12 57 -42 84 -41 36 -109 151 -133 226 -45 136 -52 186 -52 369 0 201 9
242 81 379 24 46 37 78 28 70 -16 -13 -85 -145 -99 -188 -4 -12 -25 -52 -47
-87 -34 -55 -42 -76 -48 -139 -10 -105 -48 -153 -99 -126 -29 16 -34 14 -27
-14 6 -23 4 -25 -29 -25 -59 0 -93 48 -87 125 3 26 75 95 101 95 20 0 40 42
74 156 8 28 25 71 37 95 40 78 171 303 203 346 l31 43 -22 47 c-55 119 -68
292 -31 402 12 34 37 86 56 114 l35 51 -16 49 c-43 132 10 257 108 257 16 0
49 -9 73 -21z m213 -834 c49 -41 88 -50 186 -41 41 4 74 3 74 -2 0 -14 -43
-50 -73 -61 -79 -30 -213 15 -262 87 -32 47 -31 52 4 52 19 0 44 -13 71 -35z
m227 -676 c56 -28 73 -43 99 -86 75 -126 73 -331 -6 -468 -38 -66 -63 -88
-135 -121 -71 -31 -131 -29 -214 6 -128 55 -201 221 -189 425 7 107 51 175
152 235 102 61 186 64 293 9z"/>
</g>
</svg>
