<?xml version="1.0" standalone="no"?>
<!DOCTYPE svg PUBLIC "-//W3C//DTD SVG 20010904//EN"
 "http://www.w3.org/TR/2001/REC-SVG-20010904/DTD/svg10.dtd">
<svg version="1.0" xmlns="http://www.w3.org/2000/svg"
 width="310.000000pt" height="348.000000pt" viewBox="0 0 310.000000 348.000000"
 preserveAspectRatio="xMidYMid meet">
<metadata>
Created by potrace 1.16, written by Peter Selinger 2001-2019
</metadata>
<g transform="translate(0.000000,348.000000) scale(0.100000,-0.100000)"
fill="#000000" stroke="none">
<path d="M1213 3283 c-27 -46 -93 -204 -93 -222 0 -5 51 16 113 47 151 77 140
68 121 104 -18 34 -92 118 -105 118 -4 0 -21 -21 -36 -47z"/>
<path d="M1607 3261 c-35 -33 -83 -92 -107 -130 l-45 -70 -160 -80 c-161 -81
-228 -120 -175 -105 62 19 365 2 391 -22 9 -8 24 -12 33 -8 17 6 56 -3 142
-33 23 -8 65 -34 94 -58 33 -27 59 -41 70 -38 22 6 120 -80 120 -105 0 -11 3
-12 14 -3 11 9 20 6 44 -14 31 -26 42 -31 42 -17 0 9 -165 142 -175 142 -2 0
-28 15 -57 34 -87 55 -170 92 -251 110 -15 4 -25 11 -22 16 4 6 85 10 198 10
215 1 217 3 59 56 -46 15 -87 35 -91 43 -5 9 -11 62 -15 118 -7 112 -22 200
-37 209 -5 3 -38 -22 -72 -55z"/>
<path d="M200 2880 c0 -5 -6 -18 -14 -27 -84 -104 -106 -134 -106 -141 0 -5
-9 -17 -20 -27 -11 -10 -20 -26 -20 -37 0 -10 -4 -18 -9 -18 -16 0 -32 -57
-29 -101 l3 -44 28 58 c44 93 120 198 177 246 29 25 48 47 42 49 -7 2 -12 15
-12 28 0 17 -6 24 -20 24 -11 0 -20 -4 -20 -10z"/>
<path d="M985 2865 c-33 -7 -87 -24 -120 -38 -33 -14 -80 -28 -105 -32 -62
-10 -214 -69 -280 -109 -30 -18 -69 -41 -87 -50 -17 -8 -39 -24 -48 -33 -10
-10 -35 -29 -55 -43 -75 -50 -146 -109 -217 -179 l-73 -72 1 -707 c1 -623 3
-698 15 -634 26 146 43 182 142 305 50 62 226 212 291 247 40 22 101 71 101
81 0 5 -9 17 -20 26 -27 24 -25 58 11 164 17 50 29 93 26 95 -14 14 -147 -260
-147 -303 0 -65 -49 -116 -77 -80 -15 18 -31 203 -23 270 3 32 3 60 -2 63 -8
5 -16 -22 -20 -70 -2 -16 -9 -31 -15 -34 -21 -6 -34 48 -40 166 -5 101 -4 118
15 155 11 23 23 66 27 95 4 31 13 56 21 59 8 3 25 43 40 89 14 46 29 86 35 89
5 4 18 23 29 44 25 50 184 210 226 227 18 8 36 19 40 25 3 6 43 35 88 64 72
46 175 90 259 109 15 4 27 11 27 16 0 6 -1 10 -2 9 -2 0 -30 -6 -63 -14z"/>
<path d="M2524 2416 c7 -30 -28 -167 -59 -229 -14 -27 -25 -54 -25 -60 0 -7
-13 -37 -28 -67 -41 -82 -61 -76 -85 25 -11 44 -21 107 -24 140 -5 65 -26 123
-49 132 -23 9 -28 -4 -12 -29 40 -63 73 -228 71 -365 -1 -51 3 -93 8 -93 27 0
-13 -166 -42 -173 -15 -4 -19 -15 -19 -49 0 -43 -20 -176 -38 -257 -15 -65
-30 -73 -39 -20 l-7 44 -19 -75 c-10 -41 -24 -104 -31 -140 -7 -36 -29 -112
-48 -170 -20 -58 -43 -152 -51 -210 -21 -137 -39 -363 -31 -384 10 -27 -10
-18 -28 11 -34 60 -39 217 -12 431 9 68 13 126 10 130 -3 3 -6 -4 -6 -16 0
-42 -43 -148 -87 -212 -93 -138 -116 -161 -270 -262 -43 -28 -90 -59 -105 -70
-15 -10 -30 -18 -34 -18 -3 0 -18 -8 -32 -18 -15 -10 -52 -26 -83 -35 -51 -16
-60 -16 -108 -1 -62 18 -207 96 -301 160 -135 93 -260 241 -323 384 -18 40
-87 235 -94 265 -3 14 6 30 31 53 53 48 82 43 64 -10 -9 -25 -8 -33 4 -42 8
-6 18 -21 22 -34 13 -40 35 -27 29 17 -8 61 4 104 42 146 39 42 53 41 37 -4
-8 -24 -7 -41 9 -83 10 -29 19 -61 19 -70 0 -26 17 -22 37 10 23 36 29 39 80
47 30 4 53 2 74 -9 29 -15 31 -14 54 12 21 24 22 29 9 54 -14 26 -19 68 -9 68
3 0 14 -5 25 -12 27 -17 37 -2 15 22 -16 17 -16 20 -2 20 9 0 19 -4 22 -10 8
-13 71 -13 96 0 10 6 19 17 19 25 0 8 16 21 35 31 55 26 117 86 183 178 58 79
108 173 98 183 -3 3 -16 -12 -29 -34 -50 -77 -158 -157 -296 -220 -94 -43
-108 -34 -59 40 46 69 91 157 84 165 -3 3 -7 3 -9 1 -72 -112 -129 -172 -209
-222 -55 -34 -67 -8 -17 39 33 31 150 244 134 244 -3 0 -30 -38 -60 -84 -62
-94 -178 -216 -205 -216 -10 0 -28 -16 -40 -35 -12 -19 -26 -35 -31 -35 -5 0
-36 -21 -69 -47 -34 -27 -73 -55 -88 -63 -57 -32 -179 -134 -230 -192 -56 -64
-97 -137 -128 -228 -15 -45 -19 -84 -19 -210 0 -148 1 -158 27 -213 15 -32 36
-70 46 -85 11 -15 23 -37 26 -49 22 -70 -84 40 -136 140 -68 133 -85 311 -49
497 11 52 18 96 16 98 -1 2 -17 -37 -35 -85 -69 -192 -85 -326 -55 -459 9 -36
14 -68 12 -70 -16 -17 -78 142 -90 231 -2 17 -5 -56 -6 -161 l-1 -192 45 -11
c26 -6 49 -19 55 -31 10 -19 21 -20 235 -20 143 0 225 4 225 10 0 6 32 10 76
10 l76 0 -6 -25 c-4 -14 -9 -45 -13 -70 l-6 -45 1138 0 1138 0 -6 318 c-16
796 -124 1365 -338 1771 -29 55 -49 107 -49 126 0 18 -9 41 -20 53 -27 28 -34
28 -26 -2z m-114 -486 c14 -34 30 -40 30 -10 0 56 55 -4 106 -115 21 -47 23
-48 24 -20 1 50 17 10 55 -141 81 -314 109 -581 110 -1022 l0 -334 -24 -19
c-28 -23 -59 -24 -89 -3 -22 15 -22 17 -22 302 0 158 -5 341 -11 407 -6 66
-14 229 -18 363 l-6 243 -42 -36 c-35 -30 -42 -41 -37 -61 8 -31 -7 -48 -64
-74 -26 -12 -54 -25 -62 -29 -9 -5 -34 -12 -57 -15 -48 -9 -61 9 -39 52 8 15
18 43 24 62 6 19 22 66 36 104 18 49 26 88 26 136 0 78 8 93 27 48 11 -26 16
-30 23 -18 16 25 11 73 -10 105 -23 35 -27 105 -6 105 7 0 19 -13 26 -30z
m-40 -600 c0 -9 10 -30 23 -46 22 -28 58 -149 51 -169 -3 -6 -27 -25 -54 -43
-30 -20 -50 -40 -50 -51 0 -38 -32 -62 -92 -68 -48 -5 -59 -3 -64 11 -4 10 1
26 13 39 35 39 63 137 63 220 0 42 -4 79 -10 82 -17 11 -11 35 10 35 19 0 26
-15 48 -109 10 -44 25 -49 41 -15 10 22 9 30 -4 44 -15 16 -21 81 -9 93 11 10
34 -5 34 -23z m-1865 -185 c0 -10 -15 -26 -35 -37 -40 -21 -40 -32 0 -91 32
-48 69 -85 101 -101 20 -10 66 -76 53 -76 -21 0 -107 56 -137 89 -44 49 -90
137 -80 154 4 7 23 29 42 50 36 39 56 43 56 12z m1088 -750 c-5 -54 -3 -69 12
-85 16 -18 16 -20 1 -26 -9 -3 -24 -3 -33 1 -10 4 -110 6 -223 6 -221 -1 -213
-3 -263 57 -15 19 -27 29 -27 24 0 -6 11 -24 25 -40 14 -17 25 -33 25 -36 0
-14 -50 -25 -85 -19 l-37 6 4 77 c5 83 13 107 31 91 7 -5 32 -20 57 -33 25
-13 54 -29 65 -35 11 -6 31 -15 45 -21 14 -5 38 -15 53 -21 41 -16 78 -14 122
9 22 11 43 20 47 20 4 0 31 15 60 33 80 49 112 65 120 61 4 -3 4 -34 1 -69z"/>
<path d="M1807 1693 c4 -10 17 -34 30 -53 13 -19 23 -43 23 -53 0 -11 11 -32
25 -49 28 -33 36 -69 10 -48 -13 10 -15 9 -15 -9 0 -15 9 -25 28 -32 15 -5 36
-23 47 -39 11 -17 24 -30 28 -30 4 0 19 -12 32 -26 l25 -27 -6 94 c-7 110 -9
120 -26 114 -7 -3 -24 6 -38 20 -14 14 -31 31 -39 38 -8 6 -38 36 -68 65 -59
57 -66 61 -56 35z"/>
<path d="M1740 1484 c-19 -13 -53 -29 -75 -35 -37 -10 -145 -49 -153 -55 -9
-6 21 -44 34 -44 16 0 16 -23 -1 -76 -5 -16 -2 -23 14 -27 14 -3 23 -16 27
-36 8 -37 17 -39 32 -7 19 41 144 46 157 5 12 -37 35 -13 35 36 0 13 5 27 11
31 11 6 8 35 -6 82 -10 31 7 28 42 -6 17 -17 34 -50 42 -81 13 -50 12 -53 -14
-92 -14 -23 -24 -43 -21 -46 7 -7 84 76 92 99 7 22 44 34 54 18 9 -15 30 -4
30 16 0 9 -10 14 -28 14 -23 0 -33 8 -48 35 -30 56 -125 125 -173 125 -9 0
-23 5 -31 10 -13 8 -10 14 15 35 40 32 11 32 -35 -1z"/>
</g>
</svg>
