<?xml version="1.0" standalone="no"?>
<!DOCTYPE svg PUBLIC "-//W3C//DTD SVG 20010904//EN"
 "http://www.w3.org/TR/2001/REC-SVG-20010904/DTD/svg10.dtd">
<svg version="1.0" xmlns="http://www.w3.org/2000/svg"
 width="310.000000pt" height="348.000000pt" viewBox="0 0 310.000000 348.000000"
 preserveAspectRatio="xMidYMid meet">
<metadata>
Created by potrace 1.16, written by Peter Selinger 2001-2019
</metadata>
<g transform="translate(0.000000,348.000000) scale(0.100000,-0.100000)"
fill="#000000" stroke="none">
<path d="M1605 3443 c-33 -22 -80 -59 -104 -84 l-44 -44 -66 66 c-139 141
-223 117 -326 -95 -49 -101 -105 -265 -105 -308 0 -11 -37 -42 -102 -84 -120
-78 -255 -209 -285 -274 -11 -25 -26 -72 -33 -105 -7 -33 -21 -76 -31 -96 -27
-55 -271 -430 -350 -540 -117 -164 -159 -278 -159 -435 0 -153 47 -265 148
-355 61 -54 98 -69 171 -69 57 0 65 -3 133 -52 l72 -53 85 0 c77 0 91 3 136
29 27 17 85 65 127 107 l78 77 20 -66 c12 -37 23 -92 27 -122 l5 -56 -71 -59
c-73 -59 -231 -221 -231 -236 0 -5 -6 -7 -12 -5 -7 3 -25 7 -39 10 -14 3 -38
17 -55 31 -33 28 -64 33 -64 10 0 -9 7 -32 15 -51 13 -32 13 -38 -2 -60 -14
-22 -15 -37 -4 -132 15 -136 15 -130 6 -242 -7 -89 -6 -97 15 -123 l21 -27
1239 0 1239 0 20 26 c19 24 21 40 21 165 l0 137 -30 -14 c-38 -19 -91 -6 -132
32 -39 39 -35 48 12 24 53 -27 125 -27 140 0 7 14 10 98 9 245 l-2 223 -59 22
c-33 12 -58 27 -58 35 0 17 48 11 92 -12 l27 -13 0 77 c0 50 -5 83 -14 93 -7
9 -22 88 -34 184 -12 93 -39 258 -60 365 -22 108 -43 225 -47 261 -5 45 -19
91 -47 150 -23 47 -44 87 -47 90 -3 3 -17 30 -29 60 -182 431 -495 753 -877
901 l-81 32 -7 83 c-12 144 -51 257 -100 289 -50 33 -86 30 -151 -12z m-335
-133 c26 -14 90 -104 90 -126 -1 -14 -32 -34 -118 -76 -64 -31 -118 -55 -120
-54 -9 9 82 218 110 254 13 15 14 15 38 2z m421 -27 c5 -14 15 -85 21 -157 7
-84 16 -137 26 -148 7 -9 44 -26 80 -37 199 -60 436 -215 576 -376 65 -74 156
-201 140 -194 -5 2 -51 25 -102 51 -84 43 -237 98 -273 98 -7 0 -55 31 -106
69 -122 92 -234 148 -271 135 -15 -5 -33 -23 -41 -39 -21 -43 1 -72 87 -119
l73 -40 -47 -17 c-26 -10 -64 -32 -85 -49 -21 -16 -43 -30 -50 -30 -10 0 -10
-3 -2 -11 9 -9 23 -2 55 25 57 49 127 68 252 68 131 0 196 -16 364 -94 208
-95 357 -230 442 -398 57 -114 73 -184 75 -338 2 -136 -4 -160 -16 -69 -7 50
-45 166 -64 196 -5 10 -4 16 3 19 7 2 12 8 12 14 0 6 -6 8 -14 5 -10 -4 -22 8
-35 34 -27 51 -101 149 -112 149 -16 0 -10 -18 21 -67 17 -26 30 -51 30 -56 0
-4 14 -36 30 -71 25 -51 29 -71 26 -113 -3 -39 -1 -51 8 -47 13 5 51 -74 41
-84 -3 -3 -5 0 -5 6 0 7 -4 12 -10 12 -17 0 -11 -36 10 -55 24 -21 26 -63 5
-91 -8 -10 -15 -17 -15 -14 -11 48 -10 53 5 40 13 -10 15 -9 15 9 0 12 -6 21
-14 21 -20 0 -27 13 -32 63 -4 42 -32 134 -60 194 -7 17 -14 36 -14 41 0 6
-17 37 -39 69 -21 32 -58 89 -81 126 -41 65 -96 120 -148 146 -38 20 -34 9 17
-45 101 -108 170 -207 196 -283 13 -40 30 -80 36 -88 22 -26 0 -25 -28 1 -15
14 -34 26 -42 26 -8 0 -23 8 -34 18 -19 17 -20 16 -13 -12 10 -43 -15 -19 -33
30 -24 67 -140 234 -162 234 -11 0 7 -30 64 -108 74 -102 109 -204 111 -328 1
-28 6 -57 13 -65 17 -21 21 -85 4 -81 -7 1 -10 -2 -7 -7 8 -13 -9 -22 -27 -15
-9 3 -17 24 -21 52 -13 104 -26 142 -91 267 -66 128 -118 209 -151 236 -15 13
10 -31 86 -148 45 -70 110 -269 110 -339 0 -41 -2 -45 -16 -33 -9 7 -23 13
-32 14 -10 1 -52 10 -94 20 -73 18 -78 20 -106 64 -83 132 -123 225 -146 336
l-12 60 -7 -110 c-6 -117 -42 -332 -58 -351 -5 -7 -9 -16 -7 -20 1 -5 -2 -24
-6 -41 -5 -23 -13 -33 -27 -33 -11 0 -19 7 -19 17 0 14 -3 13 -23 -5 -41 -39
-55 -29 -63 41 -7 52 -9 57 -14 32 -4 -16 -5 -45 -2 -62 3 -18 0 -33 -5 -33
-19 0 -35 182 -28 318 4 81 3 132 -3 132 -10 0 -18 -67 -28 -248 -4 -67 -12
-126 -17 -129 -6 -4 -13 -1 -15 5 -2 8 -8 7 -19 -3 -8 -8 -23 -15 -34 -15 -10
0 -19 -3 -19 -7 0 -15 -60 -8 -65 7 -18 63 -27 153 -22 218 3 42 2 95 -3 117
l-8 40 -3 -45 c-1 -25 -3 -121 -3 -214 l-1 -170 -65 -33 c-36 -18 -69 -31 -74
-30 -5 2 -10 19 -11 37 -1 19 -5 82 -10 140 -9 105 -9 105 -17 50 -5 -30 -6
-93 -3 -140 3 -57 1 -92 -8 -106 -18 -31 -77 -79 -77 -62 0 7 -8 22 -16 33
-15 19 -16 18 -10 -15 6 -32 6 -33 -8 -17 -25 32 -59 269 -51 362 4 48 3 54
-5 30 -25 -76 -23 -188 6 -360 5 -29 4 -29 -21 10 -40 63 -65 159 -72 275 -5
93 -3 116 21 204 14 54 35 119 46 145 20 45 20 45 1 21 -11 -14 -34 -60 -51
-103 -27 -69 -32 -94 -37 -210 -7 -169 18 -294 78 -379 11 -15 19 -43 19 -67
0 -63 29 -218 56 -299 32 -96 74 -177 147 -286 54 -81 176 -216 194 -216 12 0
15 -78 4 -85 -27 -16 -143 58 -250 160 -74 70 -111 122 -133 185 -82 234 -83
239 -123 415 -9 39 -16 118 -17 177 -1 59 -5 113 -10 120 -6 8 -8 -44 -6 -135
4 -158 -1 -165 -34 -47 -18 64 -18 64 -12 15 3 -27 17 -97 31 -155 13 -58 27
-149 30 -202 6 -91 4 -100 -21 -152 -31 -64 -124 -154 -192 -185 -76 -36 -179
-23 -237 29 l-32 30 77 -7 c159 -12 283 70 343 231 17 43 17 58 8 135 -7 47
-26 133 -43 191 -114 387 -86 674 93 947 103 158 297 327 417 364 18 5 20 8 6
8 -63 3 -273 -148 -372 -267 -170 -207 -251 -489 -221 -772 l8 -75 -106 -112
c-102 -108 -164 -153 -211 -153 -11 0 -39 14 -62 31 l-42 30 49 72 c62 93 91
150 91 182 0 48 -54 78 -105 59 -9 -4 -28 -30 -42 -58 -29 -58 -91 -150 -122
-183 -35 -37 -74 -30 -130 22 -71 66 -95 128 -95 240 0 142 20 191 165 396 73
103 306 465 333 516 9 18 24 68 35 113 11 48 30 97 47 122 66 95 338 275 618
409 58 28 113 60 122 72 8 12 29 45 47 72 35 55 139 165 156 165 7 0 16 -12
22 -27z m432 -1541 c27 -50 97 -211 97 -224 0 -4 -41 -8 -91 -8 l-91 0 7 43
c3 23 10 65 15 92 5 28 12 71 15 98 4 26 10 47 14 47 4 0 19 -21 34 -48z m572
-39 c31 -32 62 -66 71 -75 20 -21 11 -37 -18 -31 -16 3 -27 -3 -37 -19 -13
-20 -13 -22 1 -10 42 34 58 -23 54 -198 -1 -47 3 -88 8 -92 6 -4 5 -16 -3 -32
-11 -20 -12 -28 -2 -40 7 -8 9 -21 5 -28 -4 -7 -8 -32 -9 -56 0 -24 -5 -46
-11 -50 -8 -5 -9 -26 -4 -62 4 -31 4 -60 -2 -67 -5 -6 -6 -24 -2 -40 6 -23 5
-26 -7 -16 -12 9 -14 4 -15 -34 -1 -31 -6 -48 -17 -55 -11 -6 -17 -22 -17 -48
0 -26 -6 -42 -17 -49 -11 -6 -18 -23 -19 -47 0 -20 -7 -42 -15 -48 -8 -6 -13
-20 -11 -31 2 -15 1 -17 -6 -6 -13 18 -24 -1 -15 -25 5 -13 3 -16 -9 -11 -11
4 -24 -6 -42 -34 -15 -21 -22 -39 -16 -39 5 0 10 -4 10 -10 0 -5 -6 -7 -13 -4
-8 3 -26 -12 -42 -36 -94 -136 -296 -191 -382 -104 -38 37 -39 45 -14 99 19
39 19 39 20 12 1 -42 50 -87 94 -87 77 0 248 157 327 301 64 115 108 251 137
414 23 135 25 165 19 305 -8 197 -12 220 -38 220 -11 0 -22 -8 -25 -20 -6 -22
-20 -25 -43 -10 -12 8 -12 10 4 16 13 5 17 14 13 34 -3 15 -1 32 5 38 11 11
15 31 17 95 0 20 3 37 6 37 3 0 30 -26 60 -57z m-441 -251 c20 -18 41 -32 46
-32 6 0 10 -4 10 -10 0 -5 -8 -10 -17 -10 -15 0 -14 -2 3 -14 12 -9 23 -11 29
-5 12 12 55 12 55 -1 0 -13 -48 -32 -61 -25 -5 3 -40 -3 -78 -15 -53 -15 -72
-26 -77 -43 -5 -12 -7 -25 -6 -29 1 -4 -3 -19 -8 -33 -15 -39 21 -33 41 8 20
40 42 45 57 12 14 -30 28 -32 37 -5 3 11 15 20 26 20 10 0 19 5 19 10 0 6 7
10 15 10 8 0 15 -5 15 -11 0 -5 5 -7 10 -4 6 3 14 -4 19 -17 l9 -23 7 28 c8
31 13 32 60 13 62 -26 55 -106 -15 -157 -16 -13 -30 -26 -30 -29 0 -14 46 -4
61 13 9 9 20 17 25 17 9 0 38 57 49 98 4 12 10 22 15 22 6 0 6 -10 0 -24 -5
-13 -7 -26 -4 -29 7 -6 -33 -189 -58 -267 -11 -36 -37 -88 -58 -115 -75 -101
-286 -272 -371 -301 -29 -11 -47 -10 -95 1 -171 40 -374 137 -451 217 -23 24
-61 77 -83 118 -48 86 -120 251 -120 271 1 18 40 -28 40 -47 0 -8 3 -14 8 -14
4 0 22 -14 40 -31 27 -25 102 -53 102 -37 0 3 -21 18 -47 35 -56 34 -83 75
-67 101 6 9 26 27 44 40 l34 23 17 -33 c16 -31 17 -31 17 -6 0 14 9 37 21 49
18 20 23 21 31 9 5 -8 7 -17 5 -20 -2 -4 1 -7 8 -7 7 0 20 -4 30 -8 14 -6 20
-2 24 14 4 17 8 19 19 10 11 -9 14 -8 14 5 0 24 27 19 46 -8 8 -14 22 -22 29
-20 10 4 8 17 -12 56 l-25 50 -92 -2 c-50 -1 -97 -2 -104 -1 -20 2 -4 21 18
21 25 0 74 19 67 26 -9 10 -120 -17 -160 -38 -21 -11 -41 -17 -45 -13 -12 12
40 42 115 65 40 12 77 29 82 37 7 14 11 13 32 0 17 -11 39 -15 73 -12 59 6 96
28 96 56 0 11 5 17 10 14 6 -3 10 -15 10 -25 0 -17 8 -19 83 -18 45 0 89 4 98
9 9 4 22 29 29 55 l13 46 92 -4 c87 -4 95 -6 129 -36z m-1077 -761 c118 -256
164 -341 206 -383 80 -81 153 -97 219 -48 33 25 38 25 38 2 0 -40 -80 -92
-140 -92 -38 0 -126 35 -168 66 -51 40 -108 123 -130 194 -27 84 -62 242 -60
272 1 13 -2 39 -5 58 -4 19 -4 28 0 20 3 -8 21 -48 40 -89z m461 -85 c33 -17
39 -36 25 -84 -4 -16 -11 -22 -23 -19 -10 2 -25 -4 -34 -14 -22 -26 -38 -24
-71 11 -27 28 -28 32 -17 68 7 22 12 56 12 77 l0 37 38 -30 c20 -16 52 -37 70
-46z m-510 -169 c-55 -110 -231 -232 -331 -231 -51 1 -116 38 -147 85 -14 22
-14 23 5 14 11 -6 58 -10 105 -10 128 0 198 35 289 145 35 42 51 71 56 102 11
68 18 68 32 0 12 -59 11 -66 -9 -105z m1139 40 c-2 -56 -6 -108 -11 -115 -11
-18 -76 -15 -98 5 -25 22 -23 68 4 93 26 24 9 26 -32 5 -51 -26 -72 -91 -50
-149 11 -30 65 -66 98 -66 26 0 28 -11 5 -32 -60 -53 -160 -64 -228 -25 -50
29 -55 50 -15 67 41 17 80 65 80 99 0 41 -40 94 -78 105 -40 11 -53 1 -24 -20
24 -17 30 -62 10 -82 -7 -7 -27 -12 -46 -12 l-33 0 2 80 c3 73 5 80 22 74 79
-25 156 -44 180 -44 34 0 85 27 152 80 28 22 53 40 58 40 4 0 6 -46 4 -103z
m-1187 50 c0 -25 -81 -135 -117 -160 -75 -51 -243 -89 -243 -54 0 6 15 41 33
77 l32 65 80 6 c77 6 130 24 180 63 25 19 35 20 35 3z m920 -172 c0 -39 -21
-60 -89 -86 -79 -30 -220 -22 -243 13 -4 7 -8 24 -8 39 0 14 -5 30 -12 37 -7
7 -9 12 -5 12 12 0 51 -24 59 -36 5 -8 46 -11 119 -10 104 1 112 3 130 25 10
13 19 32 19 43 0 17 3 18 15 8 8 -7 15 -27 15 -45z m-755 -80 l25 -33 -67 -54
-67 -53 -111 -3 -110 -2 60 29 c68 32 116 79 170 165 l38 59 18 -38 c10 -20
30 -52 44 -70z m1642 83 c72 -41 73 -43 73 -135 l0 -83 -29 0 c-27 0 -28 2
-34 59 -3 33 -17 85 -31 117 -35 76 -36 75 21 42z m-506 -158 c9 -30 15 -58
12 -62 -6 -11 -187 -10 -198 1 -6 5 -25 11 -44 13 l-33 3 64 43 c36 23 75 42
89 43 13 0 33 4 44 9 36 16 49 6 66 -50z m-468 7 c23 -19 51 -37 61 -41 19 -6
19 -7 0 -21 -14 -10 -49 -14 -131 -15 l-113 0 0 25 c0 13 5 35 11 49 10 22 19
26 68 29 31 2 57 4 59 5 2 1 22 -13 45 -31z"/>
<path d="M991 2650 c-23 -17 -61 -57 -85 -89 -80 -110 -84 -202 -8 -209 41 -4
88 24 146 89 75 83 104 167 76 220 -17 31 -78 25 -129 -11z"/>
<path d="M271 1493 c-54 -46 -22 -136 49 -136 46 0 84 44 76 87 -7 38 -39 66
-76 66 -15 0 -37 -8 -49 -17z"/>
</g>
</svg>
