<?xml version="1.0" standalone="no"?>
<!DOCTYPE svg PUBLIC "-//W3C//DTD SVG 20010904//EN"
 "http://www.w3.org/TR/2001/REC-SVG-20010904/DTD/svg10.dtd">
<svg version="1.0" xmlns="http://www.w3.org/2000/svg"
 width="298.000000pt" height="329.000000pt" viewBox="0 0 298.000000 329.000000"
 preserveAspectRatio="xMidYMid meet">
<metadata>
Created by potrace 1.16, written by Peter Selinger 2001-2019
</metadata>
<g transform="translate(0.000000,329.000000) scale(0.100000,-0.100000)"
fill="#000000" stroke="none">
<path d="M239 3271 l-24 -19 0 -296 0 -296 158 -157 157 -158 0 -625 0 -625
-63 -105 c-40 -67 -70 -106 -83 -108 -10 -2 -29 -13 -41 -25 -22 -20 -23 -26
-23 -209 l0 -188 -134 0 c-191 0 -181 13 -181 -228 0 -173 2 -192 19 -211 l19
-21 1449 0 c1435 0 1448 0 1468 20 19 19 20 33 20 210 0 244 11 230 -175 230
l-135 0 0 185 c0 184 0 186 -25 210 -13 14 -32 25 -42 25 -12 0 -38 34 -81
104 -56 94 -62 110 -62 159 0 30 7 68 16 87 14 27 16 53 11 149 -3 68 -10 117
-16 119 -8 3 -11 134 -11 425 l0 421 155 156 155 156 0 297 c0 284 -1 298 -20
317 -19 19 -33 20 -258 20 -295 0 -282 6 -282 -121 l0 -89 -190 0 -190 0 0 80
c0 73 -3 83 -25 105 l-24 25 -291 0 c-350 0 -330 8 -330 -125 l0 -85 -190 0
-190 0 0 85 c0 130 10 125 -281 125 -218 0 -239 -1 -260 -19z m401 -214 c0
-124 -6 -121 242 -125 l200 -4 39 28 c33 22 51 27 100 27 33 0 55 4 48 8 -8 4
-4 9 10 14 19 6 21 14 21 71 l0 64 190 0 190 0 0 -55 0 -54 -32 5 c-24 4 -17
-1 25 -19 32 -14 65 -31 73 -38 38 -31 105 -141 124 -202 19 -60 52 -267 44
-275 -1 -2 -12 13 -23 35 l-20 38 -1 -67 c0 -54 -3 -66 -14 -62 -8 3 -20 19
-26 35 -7 16 -51 68 -98 116 -46 48 -91 98 -100 111 -8 12 -23 27 -33 33 -17
9 -18 7 -9 -17 6 -14 22 -45 35 -69 33 -56 77 -167 69 -174 -4 -3 -9 0 -11 7
-6 17 -98 128 -114 138 -14 8 -9 -1 33 -64 39 -57 92 -171 84 -180 -4 -3 -36
25 -72 63 -36 39 -60 61 -55 49 5 -11 17 -26 25 -34 9 -7 16 -18 16 -26 0 -7
8 -17 17 -23 10 -5 14 -13 10 -17 -4 -4 -15 0 -25 10 -9 9 -39 31 -67 48 -27
17 -66 42 -86 55 -62 41 -78 28 -29 -22 47 -48 27 -58 -118 -58 -108 -1 -114
-2 -77 -13 22 -7 61 -16 88 -20 26 -3 47 -9 47 -13 0 -3 -15 -24 -34 -46 -31
-36 -35 -38 -59 -28 -14 7 -44 28 -65 48 -42 38 -58 44 -48 20 4 -10 -1 -15
-16 -15 -30 0 -16 -12 67 -54 73 -37 91 -42 97 -27 2 5 21 1 43 -10 38 -19 40
-19 53 -2 7 10 11 29 10 43 -3 27 19 42 81 55 33 7 33 7 29 -23 -4 -27 -2 -29
14 -18 13 8 17 18 13 38 -8 33 12 47 24 16 8 -20 10 -20 10 -4 1 22 -3 24 60
-38 11 -10 25 -41 32 -70 14 -62 28 -91 29 -61 1 46 16 48 50 4 l34 -42 -28
-24 c-29 -24 -29 -24 -24 -126 2 -56 10 -112 16 -123 13 -25 -2 -43 -58 -67
-19 -9 -28 -16 -19 -16 8 -1 41 15 73 34 96 58 108 32 47 -98 -30 -64 -41 -99
-45 -157 -7 -74 -22 -111 -58 -134 -25 -15 -46 8 -64 70 -16 57 -24 63 -44 39
-7 -8 -16 -12 -21 -9 -5 3 -9 -3 -9 -14 0 -22 -59 -102 -76 -102 -18 0 -27 36
-14 60 7 13 9 54 6 108 -6 104 3 148 28 144 10 -2 15 1 12 7 -4 5 -20 9 -36 9
-28 -1 -32 -5 -46 -57 -37 -133 -57 -197 -65 -205 -12 -13 -11 -53 1 -61 6 -3
10 -14 10 -23 0 -9 5 -34 10 -54 10 -35 13 -37 40 -31 32 6 34 4 24 -21 -7
-19 -44 -22 -44 -3 -1 15 -49 -41 -90 -105 -17 -25 -38 -49 -47 -52 -14 -6
-15 5 -8 96 8 114 16 142 48 169 16 14 17 17 5 13 -31 -11 -21 40 24 129 36
73 63 147 52 147 -2 0 -23 -15 -47 -33 -33 -25 -72 -40 -173 -66 -226 -57
-191 -29 -303 -241 l-98 -185 -46 -3 -47 -3 0 566 0 566 104 -3 103 -3 -12 35
c-7 19 -15 52 -19 73 l-7 37 -107 0 -107 0 -85 85 -85 85 203 0 c184 0 203 2
209 18 3 9 16 41 29 70 l23 52 -280 0 -279 0 0 190 0 190 140 0 140 0 0 -83z
m1990 -107 l0 -190 -319 0 -320 0 -22 33 c-13 17 -43 55 -67 84 l-43 52 226 3
c224 3 227 3 246 27 15 18 19 39 19 102 l0 79 140 0 140 0 0 -190z m-190 -415
l-85 -86 -104 3 -105 3 -38 75 c-21 41 -38 78 -38 82 0 5 102 8 227 8 l228 0
-85 -85z m-130 -590 c0 -246 -3 -365 -10 -365 -17 0 -219 70 -277 96 -32 14
-53 29 -53 39 0 8 -11 32 -24 53 -14 20 -26 48 -28 62 -4 32 74 270 87 266 5
-1 13 -16 17 -34 18 -68 28 -42 28 72 0 64 4 116 9 116 5 0 21 -25 37 -56 27
-54 55 -88 40 -48 -18 46 -44 153 -38 158 3 3 52 6 109 6 l103 0 0 -365z
m-665 -505 c4 -6 15 -8 26 -5 24 8 24 7 -6 -111 -26 -102 -41 -124 -82 -124
-27 0 -59 46 -69 98 -6 31 -2 39 52 93 61 61 68 66 79 49z m-744 -259 c19 -16
59 -61 89 -100 30 -39 62 -73 72 -77 32 -10 19 -25 -47 -55 -79 -36 -95 -36
-126 -3 -30 32 -82 59 -132 68 -55 10 -41 30 22 34 43 3 59 -1 84 -21 46 -34
57 -39 57 -28 0 19 -80 69 -120 76 -22 4 -43 11 -46 17 -24 38 110 30 157 -9
45 -38 34 -13 -21 49 -27 31 -50 61 -50 67 0 19 24 12 61 -18z m807 -38 c4
-25 36 -33 128 -33 35 0 81 -7 103 -16 36 -14 38 -17 31 -47 -6 -27 -54 -133
-66 -146 -2 -2 -19 3 -36 12 -18 9 -41 18 -51 21 -10 3 -26 24 -36 46 -13 29
-20 37 -29 28 -8 -8 -13 -7 -18 8 -4 10 -18 45 -30 76 -13 32 -24 62 -24 69 0
19 25 3 28 -18z m-1173 -461 c0 -54 38 -136 76 -164 13 -10 45 -23 71 -30 56
-14 146 0 242 38 33 13 63 21 67 18 4 -2 0 -22 -8 -44 l-16 -40 -254 0 -253 0
0 135 0 135 38 0 37 0 0 -48z m1985 -87 l0 -135 -191 0 -190 0 25 33 c23 30
58 101 99 200 l16 37 120 0 121 0 0 -135z m320 -365 l0 -90 -1345 0 -1345 0 0
90 0 90 1345 0 1345 0 0 -90z"/>
<path d="M1040 2334 c0 -14 -2 -15 -16 -3 -15 12 -16 10 -9 -30 9 -57 -2 -131
-21 -131 -8 0 -14 6 -14 13 0 6 -12 35 -25 62 -14 28 -25 55 -25 62 0 6 -5 15
-11 19 -9 5 -10 -2 -5 -22 3 -16 10 -54 15 -84 5 -30 20 -80 34 -110 l25 -55
-1 44 c-1 28 4 47 14 55 9 6 18 18 22 26 3 9 6 10 6 3 1 -7 8 -13 16 -13 8 0
15 -4 15 -10 0 -5 -4 -10 -10 -10 -9 0 -8 -9 7 -47 10 -30 14 -46 18 -86 2
-21 13 -52 24 -70 24 -37 26 -24 10 54 -14 66 3 133 33 123 10 -3 18 -1 18 5
0 6 -4 11 -10 11 -5 0 -10 16 -10 35 0 29 4 35 21 35 15 0 19 4 15 16 -3 9 -6
17 -6 19 0 2 -27 1 -61 -2 l-61 -5 7 50 c4 32 3 52 -4 57 -6 3 -11 -1 -11 -11z"/>
</g>
</svg>
