<?xml version="1.0" standalone="no"?>
<!DOCTYPE svg PUBLIC "-//W3C//DTD SVG 20010904//EN"
 "http://www.w3.org/TR/2001/REC-SVG-20010904/DTD/svg10.dtd">
<svg version="1.0" xmlns="http://www.w3.org/2000/svg"
 width="386.000000pt" height="389.000000pt" viewBox="0 0 386.000000 389.000000"
 preserveAspectRatio="xMidYMid meet">
<metadata>
Created by potrace 1.16, written by Peter Selinger 2001-2019
</metadata>
<g transform="translate(0.000000,389.000000) scale(0.100000,-0.100000)"
fill="#000000" stroke="none">
<path d="M1307 3870 c3 -11 9 -20 13 -20 5 0 11 -13 15 -30 4 -16 11 -30 16
-30 5 0 9 -7 9 -15 0 -14 93 -200 125 -248 18 -29 15 -33 -13 -17 -32 18 -167
63 -203 67 -24 3 -63 -4 -111 -21 -40 -14 -94 -28 -118 -32 -25 -4 -49 -10
-55 -14 -5 -4 -22 -10 -36 -14 -15 -3 -61 -22 -102 -41 -41 -19 -80 -35 -86
-35 -6 0 -11 -4 -11 -9 0 -5 -12 -13 -27 -19 -16 -5 -52 -26 -82 -46 -29 -20
-55 -36 -58 -36 -12 0 -103 -96 -103 -108 0 -8 -17 -44 -39 -80 -45 -78 -111
-214 -111 -230 0 -6 -4 -12 -8 -14 -5 -1 -32 -57 -61 -122 -73 -164 -68 -155
-100 -211 -57 -103 -71 -130 -71 -142 0 -7 -4 -13 -9 -13 -5 0 -12 -13 -16
-30 -4 -17 -11 -30 -16 -30 -5 0 -9 -6 -9 -13 0 -7 -9 -29 -20 -50 -15 -27
-20 -56 -20 -112 0 -78 8 -90 37 -55 10 11 23 20 29 20 6 0 18 7 25 16 7 9 36
31 64 48 28 18 57 39 65 47 22 20 78 59 86 59 7 0 0 -76 -14 -140 -5 -25 -15
-72 -21 -105 -32 -167 -62 -284 -90 -350 -39 -92 -55 -135 -101 -260 -4 -11
-17 -41 -29 -66 -11 -25 -21 -53 -21 -62 0 -9 -4 -19 -10 -22 -14 -9 -12 -41
3 -53 8 -7 21 -3 43 12 51 35 227 171 280 217 46 40 49 41 52 20 2 -12 -3 -57
-12 -99 -8 -42 -18 -101 -22 -129 -4 -29 -10 -53 -14 -53 -4 0 -11 -29 -15
-65 -3 -36 -11 -65 -16 -65 -5 0 -9 -10 -9 -23 0 -13 -11 -55 -24 -93 -13 -38
-27 -95 -31 -127 -6 -54 -5 -57 15 -57 12 0 45 19 74 42 72 61 70 59 127 103
28 22 72 58 98 80 25 22 40 33 33 24 -9 -12 -12 -61 -10 -185 l3 -169 25 -3
c20 -2 28 4 39 30 8 18 31 57 50 85 l35 53 23 -53 c12 -28 22 -59 23 -68 0 -8
4 -19 9 -25 4 -5 13 -23 18 -39 l11 -31 -103 -58 c-56 -32 -117 -71 -134 -87
-18 -16 -38 -29 -44 -29 -28 0 -59 -36 -116 -136 -34 -59 -64 -117 -67 -130
-3 -13 -10 -24 -14 -24 -5 0 -11 -14 -15 -30 -4 -17 -10 -30 -15 -30 -4 0 -10
-10 -13 -22 -3 -13 -8 -33 -12 -45 l-7 -22 647 -1 647 0 -5 32 c-14 80 -19
128 -13 128 4 0 53 -25 110 -55 129 -69 219 -105 264 -105 21 0 81 23 159 60
68 33 129 60 135 60 10 0 7 -34 -9 -97 l-5 -23 676 0 c534 0 676 3 676 13 0 6
-14 39 -30 72 -16 33 -30 69 -30 80 0 62 -150 233 -265 303 -33 20 -66 41 -72
47 -12 10 -23 18 -86 66 l-27 20 6 102 c4 56 10 106 15 111 5 6 9 32 9 58 0
33 5 50 14 54 8 3 18 19 21 35 4 16 10 29 14 29 4 0 36 -30 70 -67 144 -156
162 -174 174 -170 16 5 21 158 7 250 -6 40 -15 117 -21 172 -5 55 -14 114 -18
130 -5 17 -12 57 -16 89 l-7 59 30 -29 c17 -16 59 -51 93 -79 35 -27 82 -69
106 -93 29 -28 52 -42 70 -42 l26 0 -7 71 c-3 39 -10 77 -14 83 -7 10 -26 85
-39 151 -3 17 -9 35 -13 40 -4 6 -11 31 -14 57 -4 26 -11 50 -17 53 -5 4 -9
14 -9 24 0 21 -37 149 -51 173 -5 10 -9 23 -9 29 0 11 -40 104 -60 141 -14 26
-14 26 30 15 22 -6 40 -15 40 -19 0 -4 6 -8 13 -8 12 0 65 -26 222 -108 17 -8
32 -19 35 -22 3 -4 14 -10 25 -14 11 -3 32 -17 48 -31 l27 -26 0 118 c0 108
-2 122 -27 170 -14 29 -30 53 -35 53 -4 0 -8 4 -8 10 0 9 -118 189 -131 200
-3 3 -13 19 -22 36 -15 30 -172 228 -230 290 -30 33 -103 120 -130 155 -10 13
-20 35 -23 49 -2 14 -11 52 -19 85 -8 32 -13 61 -11 62 2 2 43 -1 92 -7 133
-15 231 -13 237 4 6 16 -120 141 -158 157 -23 10 -57 31 -65 40 -3 3 -23 16
-45 29 -22 13 -42 27 -45 30 -7 8 -107 72 -165 105 -27 15 -52 31 -55 35 -6 8
-70 42 -123 66 -28 12 -36 21 -31 33 20 51 21 68 3 107 -14 29 -29 44 -54 53
-32 11 -33 14 -23 36 18 39 -8 134 -39 146 -67 25 -166 -6 -179 -57 -7 -28 -7
-28 -44 -9 -28 14 -33 14 -71 -5 -57 -30 -87 -95 -68 -152 7 -22 21 -45 31
-52 16 -11 13 -14 -25 -31 -23 -9 -63 -30 -89 -46 -43 -26 -78 -30 -78 -9 0 4
-27 27 -61 51 -60 44 -119 128 -119 171 0 10 -4 18 -10 18 -5 0 -12 16 -16 35
-3 19 -10 35 -14 35 -5 0 -11 14 -15 30 l-7 30 -93 0 -93 0 -5 -37 c-5 -41 -7
-37 76 -142 26 -33 44 -62 40 -64 -5 -2 -26 -8 -48 -12 -86 -15 -195 -97 -236
-178 l-20 -39 -30 46 c-28 45 -83 155 -168 339 -39 85 -41 87 -75 87 -29 0
-33 -3 -29 -20z m1407 -66 c10 -26 7 -59 -9 -97 l-15 -36 55 -25 c59 -27 70
-50 39 -80 -19 -19 -12 -19 -64 -1 -61 21 -65 20 -84 -30 -19 -50 -20 -50 -65
-34 -37 13 -37 14 -11 74 l20 46 -55 25 c-63 29 -66 33 -58 62 7 30 42 37 88
18 54 -23 60 -21 75 25 19 57 70 90 84 53z m-677 -246 c44 -17 77 -41 135 -98
92 -91 149 -199 175 -328 l16 -80 -33 -81 c-18 -45 -36 -81 -41 -81 -5 0 -56
14 -112 31 -112 33 -253 59 -333 59 -48 0 -52 2 -81 43 -68 94 -113 211 -113
292 0 53 39 135 87 180 86 83 189 105 300 63z m-682 -72 c44 -21 113 -69 198
-138 23 -19 31 -37 42 -98 13 -76 64 -194 111 -256 l23 -32 -68 -168 c-79
-195 -80 -182 13 -275 198 -199 521 -331 805 -328 148 2 136 -8 206 164 33 83
63 155 67 161 4 6 30 14 58 18 115 15 265 85 336 155 l41 41 33 -97 c18 -54
36 -102 40 -108 4 -5 10 -19 13 -30 3 -11 15 -45 27 -75 32 -81 40 -110 30
-110 -5 0 -10 3 -12 8 -9 20 -204 140 -213 131 -2 -3 5 -57 16 -120 22 -115
33 -429 17 -429 -5 0 -36 28 -69 61 -43 43 -72 83 -95 135 -19 40 -34 78 -34
84 0 44 -112 192 -131 173 -7 -7 -7 -18 0 -34 28 -68 81 -263 90 -329 6 -41
11 -127 12 -190 2 -63 6 -122 10 -130 4 -9 12 -48 18 -88 6 -40 16 -104 22
-143 6 -39 8 -73 6 -75 -9 -9 -128 68 -149 96 -11 16 -33 32 -47 35 -14 3 -51
27 -82 53 -122 102 -279 245 -288 259 -5 10 -1 33 10 64 11 27 17 49 15 49 -7
0 -56 -91 -56 -104 0 -18 -81 -172 -144 -274 -36 -57 -71 -101 -92 -115 -23
-14 -33 -28 -30 -39 2 -10 -6 -23 -19 -32 -21 -14 -23 -14 -29 7 -3 12 -6 42
-6 66 0 25 -5 71 -12 104 -12 57 -11 63 21 153 18 52 31 97 29 99 -2 3 -26
-49 -53 -115 -28 -69 -82 -175 -130 -252 -113 -183 -147 -238 -151 -238 -2 0
-2 39 -1 88 5 179 -25 602 -42 602 -3 0 -5 -49 -3 -110 l4 -109 -94 -97 c-78
-80 -99 -97 -124 -96 -63 1 -231 24 -269 36 -36 12 -40 17 -39 44 1 18 16 78
34 134 17 57 34 112 37 123 8 32 -12 5 -27 -35 -61 -162 -114 -250 -153 -250
-12 0 -29 -5 -37 -10 -13 -8 -12 -10 3 -10 31 0 30 -27 -3 -89 -23 -43 -40
-63 -61 -70 -30 -10 -40 -31 -14 -31 8 0 15 -2 15 -4 0 -8 -44 -81 -57 -94 -7
-8 -18 -23 -24 -34 -6 -11 -30 -46 -54 -77 -23 -31 -76 -107 -118 -169 -73
-109 -76 -112 -82 -83 -4 17 -4 35 -1 40 3 5 8 40 11 77 10 118 11 127 24 204
16 92 69 354 81 395 4 17 16 66 25 110 17 78 51 208 81 310 25 84 27 93 9 63
-8 -15 -31 -80 -49 -145 -19 -65 -40 -131 -46 -148 -7 -16 -23 -70 -35 -120
-31 -122 -32 -123 -61 -117 -47 9 -77 -39 -98 -155 -22 -120 -29 -219 -16
-242 9 -17 4 -24 -32 -50 -24 -16 -79 -64 -123 -107 -43 -42 -81 -72 -83 -66
-2 6 15 64 36 129 38 110 50 161 73 287 10 61 23 211 21 251 -1 25 11 42 78
107 43 42 106 113 139 157 34 44 77 97 96 118 64 69 36 59 -33 -12 -37 -38
-93 -92 -124 -120 -31 -27 -125 -116 -210 -196 -152 -146 -287 -264 -293 -257
-1 1 14 37 34 78 101 205 152 362 191 585 5 33 16 92 23 132 8 39 15 104 16
144 4 108 1 104 193 331 26 31 48 60 48 64 0 7 -143 -130 -198 -189 -14 -15
-44 -36 -67 -47 -22 -10 -98 -75 -170 -145 -71 -69 -131 -121 -133 -116 -2 6
9 32 25 59 54 88 182 356 216 452 54 150 184 400 251 483 32 39 155 121 262
175 55 28 379 136 434 145 51 9 66 6 115 -17z m1199 -36 c50 -19 86 -118 68
-184 -6 -23 -22 -37 -68 -60 -32 -17 -76 -44 -96 -59 -39 -30 -58 -29 -58 3 0
10 -11 51 -25 91 -22 65 -23 75 -10 105 15 36 49 70 98 97 36 19 55 21 91 7z
m236 -86 c55 -37 104 -72 109 -78 7 -8 -20 -12 -100 -13 l-109 -2 0 38 c0 21
-6 59 -14 85 -18 59 -20 59 114 -30z m156 -176 c156 -51 259 -226 214 -363
-15 -47 -79 -118 -135 -151 -54 -31 -173 -72 -237 -80 -49 -7 -50 -6 -101 43
-75 72 -119 103 -234 168 -57 31 -103 60 -103 64 0 24 68 162 94 190 118 127
336 184 502 129z m-935 -283 c236 -41 515 -178 648 -318 l34 -36 -17 -46 c-10
-25 -22 -45 -27 -45 -6 0 -27 16 -47 35 -20 20 -73 60 -117 89 -196 132 -428
212 -662 232 -46 4 -83 8 -83 10 0 1 9 23 20 48 l19 46 74 0 c41 0 112 -7 158
-15z m-38 -166 c223 -45 459 -161 605 -297 l53 -49 -16 -39 c-9 -22 -20 -43
-25 -48 -5 -5 -31 10 -62 36 -207 175 -481 285 -780 313 -38 4 -68 10 -68 15
0 11 27 74 36 83 14 14 157 7 257 -14z m-102 -155 c109 -18 241 -61 354 -115
136 -64 313 -188 299 -210 -9 -16 -132 -10 -237 12 -123 24 -290 90 -393 154
-74 47 -194 149 -194 166 0 13 65 11 171 -7z m650 -936 l127 -133 -45 -7 c-25
-4 -52 -10 -62 -14 -9 -4 -41 -6 -72 -5 -42 2 -60 -2 -73 -14 -13 -13 -27 -16
-64 -11 -35 4 -42 3 -27 -4 16 -8 12 -9 -19 -6 -21 3 -41 8 -44 11 -3 3 13 43
36 90 23 47 42 88 42 91 0 14 60 134 67 134 4 0 64 -60 134 -132z m-801 -148
c0 -89 -3 -110 -14 -110 -8 0 -18 5 -21 10 -3 6 -17 7 -29 4 -13 -3 -40 2 -61
10 -43 18 -47 9 50 125 32 39 63 71 67 71 4 0 8 -49 8 -110z m303 -77 c4 -54
7 -133 7 -175 0 -43 4 -78 9 -78 4 0 41 49 81 109 67 101 77 111 124 130 68
28 206 50 346 57 l115 6 85 -79 84 -80 -12 -124 c-22 -223 -84 -399 -209 -594
-68 -106 -123 -165 -260 -283 -134 -115 -215 -171 -331 -228 -64 -32 -79 -36
-130 -32 -124 10 -437 192 -587 343 -80 80 -200 245 -247 340 -44 87 -95 217
-122 314 -23 79 -25 99 -16 120 l12 26 15 -40 c8 -22 18 -58 22 -80 5 -31 10
-39 24 -37 10 2 38 -14 62 -36 38 -33 141 -80 152 -68 2 2 -16 15 -41 30 -41
24 -106 90 -106 108 0 9 139 102 144 97 1 -2 9 -26 16 -54 8 -27 24 -66 37
-85 24 -38 83 -75 105 -67 8 3 6 6 -6 6 -55 2 -134 111 -120 165 9 35 54 73
97 81 35 7 37 6 37 -19 0 -30 27 -46 41 -25 5 8 7 22 5 32 -5 20 10 22 51 6
35 -13 83 -58 83 -77 0 -9 6 -12 16 -8 9 4 23 1 30 -5 11 -9 12 -5 5 19 -5 16
-14 39 -20 51 -10 18 -9 22 10 29 20 8 19 11 -25 49 -27 24 -65 45 -93 53 -27
7 -52 16 -57 21 -4 4 11 21 34 38 46 33 57 33 163 4 47 -13 59 -21 64 -41 3
-14 3 -93 -1 -175 l-6 -150 22 19 c54 48 204 307 253 437 10 26 21 47 25 47 4
0 10 -44 13 -97z m-1323 52 c10 -12 9 -28 -4 -82 -26 -105 -36 -153 -46 -217
-10 -71 -23 -87 -43 -55 -28 44 10 306 50 351 20 22 27 22 43 3z m580 -25 c92
-11 180 -30 180 -39 0 -3 -20 -20 -43 -38 -23 -18 -72 -58 -108 -90 -120 -105
-168 -143 -178 -143 -6 0 12 42 39 93 51 96 65 142 34 116 -8 -7 -24 -29 -35
-48 -44 -80 -75 -131 -88 -143 -9 -9 -8 -3 3 19 9 18 16 40 16 50 1 10 8 36
16 58 8 22 19 62 24 89 9 45 33 86 49 86 4 0 45 -5 91 -10z m1838 -364 c2 -10
0 -21 -5 -25 -4 -3 -26 -33 -47 -66 -84 -129 -183 -225 -233 -225 -29 0 -29
13 2 67 22 36 31 43 56 43 53 0 189 155 189 215 0 23 34 15 38 -9z m-2237
-107 c6 -11 48 -70 93 -131 96 -128 119 -165 108 -172 -26 -16 -202 110 -233
167 -10 17 -9 17 13 4 13 -8 43 -18 68 -21 43 -6 44 -6 20 8 -14 9 -32 15 -42
16 -9 0 -35 16 -58 35 -23 19 -43 35 -45 35 -2 0 -1 -10 3 -22 5 -21 4 -22
-11 -9 -22 18 -21 24 6 52 13 13 26 32 30 42 9 23 34 22 48 -4z"/>
<path d="M2465 1369 c-154 -36 -159 -39 -225 -99 -46 -42 -60 -59 -46 -60 19
0 19 -2 1 -70 -6 -23 -5 -24 8 -7 19 23 37 22 37 -2 0 -11 5 -23 10 -26 6 -4
10 10 10 35 0 70 84 137 92 73 2 -17 10 -29 21 -31 23 -5 33 25 18 50 -12 19
-10 20 39 15 71 -7 113 -45 108 -99 -2 -23 0 -34 6 -28 11 11 13 136 2 168 -7
20 -4 22 28 22 44 0 135 -34 164 -61 18 -16 22 -28 18 -59 -8 -67 -48 -124
-126 -180 -40 -29 -42 -32 -16 -26 65 16 182 129 220 213 18 40 18 42 0 66
-11 14 -38 38 -61 54 -26 18 -37 31 -30 35 7 5 3 8 -10 8 -12 0 -25 5 -28 10
-8 12 -185 11 -240 -1z"/>
</g>
</svg>
