<?xml version="1.0" standalone="no"?>
<!DOCTYPE svg PUBLIC "-//W3C//DTD SVG 20010904//EN"
 "http://www.w3.org/TR/2001/REC-SVG-20010904/DTD/svg10.dtd">
<svg version="1.0" xmlns="http://www.w3.org/2000/svg"
 width="383.000000pt" height="348.000000pt" viewBox="0 0 383.000000 348.000000"
 preserveAspectRatio="xMidYMid meet">
<metadata>
Created by potrace 1.16, written by Peter Selinger 2001-2019
</metadata>
<g transform="translate(0.000000,348.000000) scale(0.100000,-0.100000)"
fill="#000000" stroke="none">
<path d="M1722 3460 c-35 -22 -62 -72 -62 -115 0 -33 24 -80 50 -98 18 -13 19
-19 9 -113 -6 -54 -14 -105 -18 -112 -5 -9 -28 26 -65 100 -53 103 -57 116
-47 144 28 78 5 150 -57 178 -63 29 -128 10 -162 -47 -35 -58 -17 -137 39
-170 33 -19 37 -37 47 -217 l6 -115 -33 44 c-19 24 -66 84 -105 135 -61 77
-70 94 -63 114 22 58 -5 128 -60 157 -40 20 -62 19 -115 -7 -54 -26 -70 -58
-67 -132 1 -34 59 -96 90 -96 16 0 23 -10 31 -42 6 -24 15 -59 21 -78 25 -86
55 -210 52 -210 -3 0 -28 22 -56 49 -49 45 -98 89 -159 140 -21 19 -25 29 -21
56 11 66 -55 145 -120 145 -36 0 -88 -27 -110 -56 -21 -28 -25 -100 -7 -134
14 -27 68 -60 97 -60 19 0 34 -23 94 -141 l71 -142 -39 23 c-21 13 -68 40
-104 62 -61 35 -67 41 -73 79 -5 28 -18 53 -40 75 -29 29 -41 34 -81 34 -68 0
-107 -24 -126 -79 -14 -39 5 -106 38 -137 25 -23 80 -40 105 -32 12 5 40 -29
105 -127 14 -22 41 -60 59 -83 l33 -44 -16 -41 c-9 -23 -22 -51 -30 -62 -7
-11 -13 -27 -13 -37 0 -10 -4 -18 -10 -18 -5 0 -10 -9 -10 -19 0 -11 -5 -23
-10 -26 -6 -3 -10 -17 -10 -31 0 -13 -4 -24 -9 -24 -10 0 -31 -85 -31 -126 0
-14 -7 -32 -15 -40 -8 -9 -15 -33 -15 -55 0 -21 -4 -39 -10 -39 -6 0 -10 -50
-10 -130 0 -80 4 -130 10 -130 6 0 10 -28 10 -62 1 -40 6 -70 15 -82 9 -12 15
-43 15 -75 1 -83 17 -203 28 -210 5 -3 12 -28 16 -56 4 -27 10 -67 13 -88 3
-20 10 -37 15 -37 6 0 8 -11 4 -28 -14 -54 -27 -118 -33 -152 -3 -19 -10 -38
-15 -41 -5 -3 -14 -37 -21 -75 -6 -38 -17 -73 -24 -77 -7 -4 -13 -19 -13 -32
0 -14 -4 -25 -8 -25 -5 0 -15 -29 -22 -65 -7 -35 -19 -66 -25 -69 -7 -2 -15
-22 -18 -44 -4 -22 -14 -45 -22 -52 -8 -7 -15 -18 -15 -24 0 -7 -9 -29 -20
-51 -11 -22 -20 -45 -20 -51 0 -7 -7 -14 -15 -18 -8 -3 -15 -14 -15 -24 0 -10
-5 -23 -11 -29 -5 -5 -9 -31 -7 -57 l3 -48 27 54 c15 29 36 76 48 103 11 28
25 57 30 65 9 14 32 63 51 105 4 11 20 46 34 79 14 32 25 67 25 77 0 10 5 21
10 24 5 3 10 24 10 46 0 21 5 39 10 39 6 0 10 8 10 18 0 20 23 89 33 98 4 4 7
17 7 28 0 12 7 34 15 50 8 15 15 38 15 51 0 12 7 35 14 51 8 16 18 48 22 72 5
34 4 42 -9 42 -16 0 -27 29 -27 74 0 16 -4 45 -10 65 -5 20 -21 90 -35 156
-14 66 -29 139 -35 163 -5 23 -10 118 -10 210 0 146 3 179 25 259 40 152 131
372 153 373 7 0 22 -9 34 -20 11 -10 40 -25 63 -33 62 -22 124 -64 135 -93 6
-14 10 -51 10 -82 1 -45 7 -70 33 -117 18 -33 40 -61 49 -63 65 -12 701 300
827 405 l33 29 -30 60 c-17 33 -43 71 -58 85 -100 89 -97 84 -89 145 14 112
44 153 137 188 38 14 71 16 180 13 144 -4 192 -14 304 -67 269 -128 459 -333
542 -586 27 -80 37 -121 72 -297 6 -27 10 -145 10 -263 l0 -214 -32 -20 c-37
-23 -68 -26 -67 -7 0 6 4 33 8 59 9 55 0 135 -14 128 -6 -3 -9 -39 -6 -88 2
-55 -1 -87 -9 -97 -20 -24 -28 -17 -36 30 -8 56 -24 49 -24 -10 0 -53 -20 -70
-93 -78 -46 -4 -73 7 -43 19 22 9 20 21 -6 27 -13 4 -26 0 -33 -10 -14 -19
-45 -11 -45 12 0 8 -4 15 -10 15 -13 0 -13 -17 1 -26 6 -3 9 -17 6 -30 -3 -19
1 -26 17 -30 35 -8 128 -8 165 0 37 9 52 -3 44 -34 -4 -14 -13 -17 -39 -15
-18 2 -38 6 -44 10 -6 4 -24 2 -40 -5 -19 -8 -34 -9 -46 -2 -20 11 -63 -3 -77
-25 -5 -8 -18 -11 -33 -7 -17 4 -24 2 -24 -8 0 -8 -18 -24 -40 -37 -33 -18
-42 -31 -55 -73 -19 -64 -19 -61 4 -48 11 5 29 10 41 10 12 0 35 9 51 21 41
29 63 19 54 -23 -10 -45 5 -28 30 35 20 50 23 52 63 55 41 3 42 2 42 -28 0
-34 -39 -118 -64 -139 -9 -8 -16 -17 -16 -22 0 -15 27 -10 34 6 3 8 15 15 26
15 34 0 24 -56 -33 -181 -13 -30 -34 -75 -45 -100 -12 -25 -28 -52 -37 -59 -8
-7 -15 -19 -15 -26 0 -8 -46 -61 -102 -117 -72 -72 -139 -127 -221 -181 l-118
-78 -62 4 c-46 3 -83 15 -144 45 -197 97 -408 242 -456 313 -38 55 -80 170
-85 230 -9 100 -7 290 2 292 5 2 32 -24 60 -58 52 -62 61 -69 112 -93 16 -7
37 -17 46 -22 22 -11 48 -12 48 -1 0 5 -11 19 -25 32 -14 13 -25 33 -25 44 0
20 -1 19 -16 -3 l-16 -23 -30 29 c-38 36 -52 71 -37 90 19 22 62 12 69 -16 7
-32 26 -37 40 -12 14 27 40 27 40 1 0 -31 43 -47 77 -29 14 8 28 22 31 32 6
23 33 21 62 -5 13 -12 25 -17 27 -11 2 5 10 19 17 29 14 18 15 18 60 -3 43
-21 46 -21 46 -5 0 39 -26 73 -75 97 -46 23 -62 25 -212 28 -90 1 -163 -1
-163 -5 0 -5 -16 -8 -35 -8 -19 0 -35 -4 -35 -9 0 -5 -14 -11 -31 -13 -22 -4
-34 1 -45 16 -14 19 -15 -3 -11 -224 4 -239 28 -480 49 -480 4 0 8 28 8 62 l0
61 26 -24 c42 -40 104 -139 104 -168 0 -23 -6 -28 -46 -39 -50 -14 -64 -10
-64 18 0 10 -5 22 -11 26 -15 9 -2 -105 29 -254 16 -73 20 -71 42 28 16 70 18
73 36 55 19 -19 74 -34 157 -41 37 -4 70 -11 73 -15 3 -5 24 -8 47 -8 l42 1
-35 8 c-96 20 -158 39 -200 60 -19 9 -28 160 -10 160 6 0 37 -18 69 -39 59
-41 292 -161 310 -161 18 0 61 -23 61 -33 0 -6 -33 -8 -90 -4 -73 6 -90 4 -90
-7 0 -7 9 -16 20 -19 14 -4 20 -14 20 -34 l1 -28 22 28 c13 15 25 27 27 27 3
0 4 -47 2 -105 l-3 -105 112 0 c88 0 110 3 101 12 -7 7 -12 22 -12 34 0 13 -4
26 -10 29 -5 3 -10 20 -10 37 0 17 -9 46 -21 65 -17 27 -19 36 -9 48 17 20 47
19 59 -3 5 -9 12 -38 16 -65 4 -26 11 -50 16 -53 5 -3 9 -19 9 -35 0 -67 4
-69 175 -69 l155 0 1 88 c1 48 1 90 1 93 -1 4 3 33 9 65 5 33 14 100 19 149 5
50 14 115 19 145 6 30 14 78 19 105 4 28 15 61 23 75 14 25 14 25 17 -17 5
-70 32 -49 32 24 0 42 15 102 41 159 10 23 21 55 25 70 4 16 10 34 14 39 4 6
10 25 13 43 4 18 18 57 32 87 30 63 52 84 41 39 -4 -16 -11 -60 -16 -98 -5
-38 -12 -76 -15 -85 -16 -41 -65 -426 -86 -673 -9 -108 -8 -156 2 -223 l12
-85 144 0 c78 0 143 3 143 7 0 4 -4 22 -10 40 -5 18 -15 50 -21 71 -6 20 -21
47 -33 60 -16 18 -21 38 -22 80 -1 60 -23 152 -36 152 -13 0 -9 38 4 42 17 6
17 162 1 179 -12 12 -19 129 -9 129 3 0 22 -16 43 -35 37 -34 83 -52 103 -40
5 3 10 0 10 -8 0 -24 36 -49 67 -45 l28 3 3 127 3 126 -81 99 c-45 54 -100
115 -123 136 l-41 37 50 0 c64 0 94 20 94 64 0 40 -25 93 -51 109 -27 17 -24
30 11 45 54 24 60 50 60 270 0 109 -4 202 -9 208 -5 5 -12 41 -14 79 -6 87
-23 175 -37 189 -5 5 -10 22 -10 37 0 15 -4 31 -10 34 -5 3 -10 19 -10 36 0
16 -4 37 -9 47 -5 9 -17 34 -25 54 -9 20 -21 40 -26 43 -6 3 -10 15 -10 26 0
10 -4 19 -8 19 -5 0 -14 16 -22 35 -8 19 -24 45 -37 57 -13 12 -23 26 -23 31
0 11 -131 147 -142 147 -9 0 -44 27 -67 53 -8 9 -19 17 -23 17 -4 0 -34 17
-67 39 -34 21 -72 42 -86 45 -14 4 -25 11 -25 16 0 6 -13 10 -28 10 -15 0 -34
6 -40 13 -10 9 -76 12 -263 12 -209 0 -251 -2 -259 -15 -13 -21 -20 -9 -46 77
-12 43 -37 126 -55 185 l-31 107 21 29 c35 50 23 139 -25 175 -38 28 -103 32
-142 7z m134 -415 c23 -77 40 -143 36 -147 -14 -14 -122 -47 -126 -39 -9 14
27 332 37 328 5 -1 29 -66 53 -142z m-235 -57 c56 -114 74 -159 66 -166 -26
-20 -129 -54 -136 -46 -8 9 -31 283 -31 364 1 55 -3 61 101 -152z m-266 -67
c71 -93 131 -173 133 -179 2 -6 -28 -27 -67 -47 -65 -32 -101 -43 -101 -30 0
3 -25 97 -55 208 -30 111 -55 205 -55 209 0 22 26 -7 145 -161z m-238 -150
c81 -74 149 -138 151 -142 2 -5 -77 -58 -130 -86 -7 -3 -188 347 -188 363 0
13 25 -7 167 -135z m802 52 c0 -10 -8 -40 -17 -67 l-17 -50 -105 -41 c-139
-55 -418 -193 -557 -277 l-111 -67 -58 22 c-32 13 -59 28 -61 34 -11 32 469
302 687 386 212 82 241 89 239 60z m-989 -225 c77 -46 140 -86 140 -90 0 -10
-92 -77 -107 -78 -6 0 -48 51 -94 113 -45 61 -86 118 -92 125 -22 28 21 8 153
-70z m960 15 c8 -21 15 -42 15 -46 0 -5 -40 -24 -90 -43 -122 -47 -393 -182
-500 -249 -48 -30 -91 -55 -95 -55 -4 0 -18 16 -30 37 -17 30 -19 38 -8 49 22
22 236 142 368 206 110 53 305 137 320 138 4 0 12 -17 20 -37z m107 -115 c29
-32 55 -87 49 -103 -14 -38 -442 -266 -659 -351 -100 -40 -120 -45 -131 -33
-17 18 -46 94 -46 119 0 47 388 263 650 361 92 34 111 35 137 7z m737 -1950
c-3 -29 -9 -69 -14 -88 -4 -19 -13 -64 -19 -100 -6 -36 -13 -82 -17 -102 -6
-38 -17 -45 -44 -28 -19 12 -22 131 -3 184 7 21 10 42 7 48 -6 10 74 138 87
138 4 0 6 -24 3 -52z"/>
<path d="M2805 620 c-4 -6 -8 -54 -10 -107 -2 -53 -7 -129 -10 -169 -4 -41 -2
-127 5 -196 15 -154 34 -194 25 -53 -8 116 -7 144 10 418 6 82 5 117 -3 117
-6 0 -14 -5 -17 -10z"/>
<path d="M1298 458 c-3 -50 -7 -75 -21 -122 -11 -39 -21 -53 -48 -67 -32 -17
-69 -25 -69 -14 0 2 7 25 16 50 8 26 14 56 12 68 -4 21 -4 21 -15 -3 -6 -14
-19 -50 -28 -81 -9 -31 -22 -63 -28 -71 -26 -31 -103 -72 -137 -73 -19 0 -40
-4 -47 -8 -8 -5 -13 2 -15 20 -6 48 -27 38 -30 -14 -3 -46 -4 -48 -30 -45 -22
2 -29 -2 -34 -23 -3 -14 -3 -32 0 -41 5 -13 9 -14 22 -3 13 10 16 9 20 -9 6
-20 10 -21 344 -22 213 0 341 3 345 9 3 6 1 18 -4 28 -5 10 -14 38 -21 63 -22
86 -74 242 -85 257 -14 19 -38 12 -90 -23 -44 -30 -57 -24 -44 19 12 42 12
114 -1 122 -5 3 -11 -4 -12 -17z"/>
</g>
</svg>
