<?xml version="1.0" standalone="no"?>
<!DOCTYPE svg PUBLIC "-//W3C//DTD SVG 20010904//EN"
 "http://www.w3.org/TR/2001/REC-SVG-20010904/DTD/svg10.dtd">
<svg version="1.0" xmlns="http://www.w3.org/2000/svg"
 width="239.000000pt" height="293.000000pt" viewBox="0 0 239.000000 293.000000"
 preserveAspectRatio="xMidYMid meet">
<metadata>
Created by potrace 1.16, written by Peter Selinger 2001-2019
</metadata>
<g transform="translate(0.000000,293.000000) scale(0.100000,-0.100000)"
fill="#000000" stroke="none">
<path d="M864 2915 c-7 -16 0 -89 11 -121 6 -20 2 -21 -54 -27 -66 -6 -69 -7
-154 -91 -58 -57 -59 -58 -100 -50 -23 4 -67 8 -98 9 -41 0 -63 6 -84 23 -30
24 -55 29 -55 11 0 -23 62 -89 83 -89 12 0 39 -16 60 -35 22 -20 49 -35 63
-35 29 0 29 -1 5 -51 -11 -22 -25 -64 -31 -94 -6 -31 -21 -64 -36 -80 -13 -14
-24 -30 -24 -35 0 -18 -103 -60 -147 -60 -34 0 -43 -4 -43 -17 0 -29 93 -63
168 -63 35 0 62 -4 62 -10 0 -5 -4 -10 -9 -10 -5 0 -14 -13 -20 -28 -19 -45
-87 -92 -134 -92 -44 0 -99 -29 -134 -69 -28 -33 -30 -61 -3 -61 11 0 20 5 20
10 0 6 7 10 16 10 9 0 27 9 41 20 32 25 45 25 68 0 19 -21 45 -27 45 -11 0 19
41 23 67 6 19 -13 41 -16 89 -13 l64 4 0 -28 c0 -21 -10 -34 -42 -56 -110 -76
-203 -189 -214 -259 -7 -50 14 -210 31 -227 35 -34 40 -76 10 -76 -22 0 -136
-60 -141 -75 -3 -8 -14 -17 -24 -20 -11 -3 -21 -19 -25 -38 -3 -18 -11 -42
-17 -54 -9 -17 -8 -33 2 -63 11 -32 11 -42 0 -55 -8 -10 -16 -64 -21 -148 -7
-138 -16 -205 -29 -222 -4 -5 -15 -46 -24 -89 -9 -44 -20 -84 -25 -90 -5 -6
-17 -43 -27 -81 -9 -39 -21 -75 -26 -81 -8 -11 -27 -135 -28 -181 l0 -23 208
0 207 1 23 36 c13 20 22 45 21 57 -1 12 1 28 4 36 3 8 10 41 16 73 6 32 17 72
25 90 7 18 18 48 23 67 9 33 10 31 26 -55 21 -109 21 -141 4 -191 -8 -22 -17
-56 -20 -76 l-6 -38 273 0 c260 0 274 1 291 20 25 27 59 27 50 0 -7 -24 13
-27 46 -8 17 10 23 10 26 1 3 -7 12 -13 20 -13 13 0 13 3 -2 26 -19 29 -13 38
29 48 29 7 29 7 23 -33 -5 -39 -4 -41 20 -41 24 0 25 2 19 44 -6 39 -4 46 14
56 27 14 40 5 40 -28 0 -15 3 -37 6 -49 l6 -23 239 0 239 0 0 43 c0 25 -8 56
-21 77 -23 37 -22 79 5 161 7 24 17 62 21 84 l8 40 13 -45 c8 -24 13 -71 12
-105 -1 -45 5 -71 21 -102 12 -23 25 -67 28 -97 l6 -56 215 0 215 0 -6 68 c-3
38 -15 97 -27 133 -12 35 -26 90 -31 123 -6 32 -16 71 -24 86 -8 16 -21 79
-29 142 -8 62 -25 147 -37 188 -11 41 -25 118 -30 170 -4 52 -13 132 -20 177
-11 70 -16 83 -36 92 -13 6 -31 11 -39 11 -8 0 -22 4 -32 9 -9 5 -26 12 -36
16 -18 5 -18 7 3 29 12 13 28 47 36 75 7 29 18 57 23 64 5 7 12 50 16 97 6 73
4 89 -11 110 -28 38 -102 110 -133 128 l-28 18 72 -1 c55 0 77 -4 90 -18 10
-9 21 -17 26 -17 5 0 18 -16 30 -35 25 -41 50 -46 50 -10 0 60 -87 151 -162
169 -16 3 -28 11 -28 16 0 6 -9 19 -19 29 -20 20 -20 20 2 27 30 9 60 42 53
59 -4 11 -17 13 -54 8 -44 -5 -52 -3 -84 26 -20 17 -39 42 -42 55 -3 14 -18
29 -33 35 -60 22 -79 55 -67 115 5 31 8 33 20 21 28 -28 94 -38 194 -30 52 4
107 7 123 7 20 -1 27 4 27 17 0 24 -58 39 -131 34 -45 -4 -58 -1 -76 16 -17
16 -21 28 -17 50 5 24 0 34 -25 57 -45 40 -40 47 27 41 77 -9 127 3 127 28 0
13 -7 20 -21 21 -61 3 -92 17 -143 64 -29 27 -63 52 -74 56 -25 8 -47 28 -47
43 0 6 12 13 28 17 55 12 67 17 99 43 51 40 44 51 -31 44 -83 -8 -103 -2 -156
47 -36 31 -53 40 -82 40 -38 0 -51 13 -23 23 12 5 55 76 55 92 0 3 -7 5 -15 5
-9 0 -12 -6 -8 -16 3 -10 -7 -29 -29 -52 -48 -50 -46 -72 3 -72 31 0 48 -8 89
-45 40 -35 60 -46 100 -51 73 -10 64 -27 -19 -36 -13 -2 -29 -11 -35 -21 -14
-22 0 -45 44 -72 45 -27 140 -117 134 -127 -3 -4 -21 -8 -40 -8 -31 0 -34 -3
-34 -29 0 -20 9 -36 25 -49 18 -15 25 -29 25 -56 0 -38 28 -76 56 -76 8 0 12
-5 8 -11 -8 -13 -87 -3 -125 17 -15 7 -38 26 -51 43 l-25 29 1 -93 c1 -100 11
-122 65 -148 14 -7 31 -22 37 -35 18 -36 63 -82 92 -94 37 -14 12 -22 -34 -9
l-37 10 34 -29 c19 -16 39 -29 44 -30 6 0 20 -15 32 -34 13 -20 32 -35 50 -39
15 -3 37 -13 48 -22 19 -16 19 -16 -9 -10 -15 3 -44 1 -63 -6 -53 -17 -79 -5
-118 56 -19 31 -45 59 -58 64 -45 17 -77 21 -77 11 0 -5 8 -10 19 -10 11 0 23
-11 29 -27 12 -32 22 -213 11 -213 -4 0 -16 20 -28 45 -15 32 -32 50 -61 65
-23 12 -45 31 -50 44 -15 41 -28 38 -14 -2 15 -45 8 -86 -25 -151 -18 -35 -21
-53 -16 -87 6 -44 6 -44 -25 -44 -22 0 -33 6 -39 23 -31 78 -44 104 -62 115
-18 12 -19 9 -19 -47 0 -64 -12 -105 -37 -134 -13 -13 -18 -15 -25 -5 -6 10
-10 10 -17 -1 -14 -21 -26 29 -26 106 0 59 2 64 41 105 22 24 48 55 57 71 11
16 26 27 40 27 42 0 138 122 136 175 -1 28 -2 27 -16 -14 -8 -24 -18 -39 -22
-35 -3 5 -16 -1 -28 -13 -24 -25 -22 -29 8 -12 20 10 20 9 5 -20 -22 -41 -71
-74 -100 -67 -19 5 -26 -1 -43 -38 -25 -51 -76 -95 -192 -165 l-84 -51 -56 31
c-90 51 -129 77 -171 116 -50 45 -51 36 -2 -18 35 -40 37 -45 37 -113 -1 -91
-15 -118 -92 -178 -51 -39 -63 -45 -63 -30 0 19 49 94 69 107 12 7 15 83 5
109 -9 25 -19 19 -32 -18 -9 -23 -24 -39 -48 -51 -20 -9 -38 -14 -41 -12 -2 3
0 22 6 43 8 30 7 59 -6 125 l-17 87 -19 -24 c-24 -31 -58 -48 -125 -64 -29 -7
-62 -22 -73 -33 -10 -11 -21 -18 -25 -15 -9 10 15 49 59 97 l39 43 -8 62 c-4
33 -8 73 -8 89 -1 20 -5 26 -16 21 -53 -22 -93 -26 -133 -13 -23 7 -60 14 -82
15 -22 1 -55 5 -73 9 -23 5 -40 2 -58 -10 -15 -9 -23 -12 -20 -6 11 18 87 51
116 51 37 0 114 62 133 108 33 77 32 77 -21 74 -27 -2 -68 2 -93 8 l-44 12 40
16 c90 34 154 113 175 215 7 37 23 73 46 102 l34 45 -49 0 c-38 0 -56 6 -79
25 -16 13 -42 30 -58 36 -16 6 -24 13 -19 14 6 1 28 8 50 15 33 10 45 9 70 -4
52 -27 82 -21 126 28 62 68 108 95 175 104 55 7 59 9 56 32 -2 14 -4 53 -5 88
-2 59 -11 79 -23 47z m222 -1341 c97 -62 103 -63 188 -10 41 25 76 46 78 46 3
0 8 -34 11 -75 9 -96 24 -125 92 -172 35 -24 55 -45 55 -58 1 -18 1 -19 11 -2
5 9 19 17 29 17 12 0 20 -7 20 -17 0 -39 -32 -167 -65 -260 -36 -103 -58 -196
-105 -443 -5 -25 -13 -98 -19 -163 -5 -65 -14 -124 -20 -131 -6 -7 -29 -18
-51 -25 -22 -6 -40 -16 -40 -21 0 -6 -6 -10 -14 -10 -9 0 -12 7 -9 19 3 10 0
22 -6 25 -7 5 -11 48 -12 109 l-1 102 -12 -95 c-6 -52 -15 -101 -20 -109 -14
-22 -113 -6 -158 26 -21 14 -38 28 -38 30 0 2 6 19 14 37 21 51 29 146 16 212
-13 71 -28 314 -19 314 4 0 23 -7 42 -15 56 -23 78 -17 31 8 -61 33 -79 49
-98 85 -20 39 -14 40 26 7 53 -45 50 -26 -5 28 -43 42 -56 63 -70 113 -21 76
-21 74 6 75 21 1 21 1 -4 10 -17 6 -29 21 -36 43 -10 33 -9 35 33 66 64 45 84
91 84 190 0 44 2 80 5 80 2 0 30 -16 61 -36z m-63 -1276 c12 -7 48 -15 80 -19
32 -4 61 -10 64 -13 4 -3 0 -21 -9 -39 -16 -34 -10 -67 19 -99 22 -24 10 -45
-29 -53 -51 -10 -102 -29 -110 -40 -25 -35 -64 115 -54 208 4 37 10 67 12 67
3 0 15 -5 27 -12z m357 -22 c0 -2 3 -11 6 -20 4 -10 -12 -34 -44 -68 -27 -29
-53 -63 -56 -75 -4 -13 -15 -23 -23 -23 -9 0 -13 3 -10 6 4 4 -9 24 -29 46
-19 21 -32 44 -28 49 4 6 43 28 88 49 80 38 96 44 96 36z"/>
<path d="M1021 2220 c-1 -36 -47 -99 -84 -116 -18 -8 -40 -19 -49 -24 -10 -6
-26 -14 -35 -18 -10 -5 -30 -30 -44 -56 -14 -25 -41 -62 -59 -81 -32 -33 -33
-36 -16 -52 9 -10 24 -27 32 -38 15 -19 15 -19 4 3 -6 12 -8 28 -4 34 4 7 3 8
-5 4 -9 -6 -10 0 -5 21 9 38 13 43 31 43 19 0 42 -28 43 -52 0 -22 21 -68 31
-68 4 0 -1 25 -12 55 -10 30 -19 62 -19 70 0 9 -4 13 -10 10 -11 -7 -11 8 -1
45 l7 24 27 -36 c16 -20 35 -39 43 -42 11 -4 9 2 -5 20 -12 15 -21 32 -21 39
0 23 13 24 142 11 15 -1 34 -9 43 -16 23 -19 18 5 -7 34 -18 20 -34 27 -70 28
l-46 3 34 35 c19 19 40 44 48 55 15 19 16 19 48 -20 18 -22 44 -50 58 -63 13
-13 30 -36 37 -50 8 -20 12 -22 12 -9 1 10 -23 44 -52 75 -47 50 -70 86 -90
142 -3 9 -6 5 -6 -10z"/>
<path d="M1380 2090 c0 -5 12 -12 28 -16 48 -10 48 -12 -4 -13 -36 -1 -59 -7
-78 -22 -30 -23 -35 -45 -8 -34 9 4 40 8 68 9 28 2 56 6 62 10 16 10 52 -2 52
-17 0 -7 -7 -23 -16 -35 -8 -12 -11 -22 -5 -22 10 0 46 41 55 63 3 9 7 8 15
-3 8 -12 11 -8 11 18 0 17 5 32 10 32 6 0 10 -8 9 -17 -1 -23 -17 -71 -18 -58
-3 22 -21 -22 -21 -50 0 -17 -4 -35 -9 -40 -5 -6 -12 -21 -16 -34 l-7 -23 31
23 c23 17 29 28 25 42 -4 14 -3 17 6 12 8 -5 11 1 10 21 -2 36 9 74 22 74 5 0
6 -9 3 -20 -4 -11 -2 -20 4 -20 16 0 13 36 -4 50 -12 10 -13 16 -5 24 8 8 15
6 25 -7 10 -14 15 -15 21 -6 14 23 -31 40 -115 42 -48 1 -85 7 -93 15 -14 14
-58 16 -58 2z"/>
</g>
</svg>
