<?xml version="1.0" standalone="no"?>
<!DOCTYPE svg PUBLIC "-//W3C//DTD SVG 20010904//EN"
 "http://www.w3.org/TR/2001/REC-SVG-20010904/DTD/svg10.dtd">
<svg version="1.0" xmlns="http://www.w3.org/2000/svg"
 width="361.000000pt" height="364.000000pt" viewBox="0 0 361.000000 364.000000"
 preserveAspectRatio="xMidYMid meet">
<metadata>
Created by potrace 1.16, written by Peter Selinger 2001-2019
</metadata>
<g transform="translate(0.000000,364.000000) scale(0.100000,-0.100000)"
fill="#000000" stroke="none">
<path d="M1406 3625 c-3 -8 -8 -37 -12 -64 -5 -43 -9 -48 -27 -43 -22 6 -49
-22 -41 -43 9 -23 -25 -25 -92 -4 -73 23 -89 21 -97 -11 -4 -17 4 -28 44 -57
27 -19 49 -37 49 -40 0 -6 -72 4 -128 19 -36 9 -46 8 -59 -4 -23 -23 -9 -50
42 -83 25 -15 56 -38 69 -50 l24 -22 -31 -17 c-147 -79 -182 -102 -185 -123
-4 -31 35 -45 99 -37 27 4 49 4 49 1 0 -9 -89 -135 -142 -202 -52 -64 -59 -89
-29 -104 14 -8 30 -3 72 24 38 24 55 30 57 21 2 -8 -20 -58 -47 -112 -28 -54
-51 -110 -51 -125 0 -15 -16 -54 -34 -86 -49 -82 -92 -194 -112 -292 -25 -125
-16 -319 20 -421 29 -86 27 -92 -44 -113 -41 -12 -46 -17 -87 -97 -30 -59 -43
-96 -43 -125 0 -23 -5 -46 -11 -52 -6 -6 -15 -29 -20 -50 -17 -83 -29 -121
-60 -188 -17 -38 -40 -89 -50 -112 -27 -60 -24 -89 12 -123 l31 -28 -16 -113
c-8 -63 -20 -130 -26 -149 -5 -19 -10 -52 -10 -73 0 -31 3 -38 17 -35 13 2 22
23 34 78 9 41 26 120 38 175 12 55 27 105 33 113 13 15 14 15 -44 40 -42 18
-48 25 -48 50 0 16 25 79 55 141 30 62 55 122 55 135 0 13 9 31 19 40 11 10
17 25 14 36 -3 11 -2 28 2 37 4 10 9 39 10 64 5 80 84 209 127 209 10 0 18 4
18 8 0 10 61 47 80 48 30 1 60 16 70 34 8 14 3 39 -17 97 -24 68 -27 93 -27
198 0 173 42 305 144 455 40 59 39 68 -3 32 -34 -29 -30 -1 11 77 23 44 42 85
42 90 0 19 -35 12 -70 -14 -66 -49 -66 -35 5 106 31 61 53 114 50 119 -6 10
-79 -22 -90 -40 -10 -16 -35 -12 -35 6 0 8 34 65 75 126 79 117 81 128 22 128
-16 0 -38 -5 -49 -11 -24 -13 -42 0 -32 24 3 10 51 42 105 73 55 31 98 61 96
67 -2 6 -29 25 -61 41 -44 24 -56 35 -54 51 3 22 21 23 96 3 32 -8 49 -8 69 1
l26 12 -33 34 c-18 18 -29 38 -26 44 9 15 42 14 66 -1 16 -11 23 -8 48 15 15
15 36 27 45 27 13 0 16 10 15 54 -1 31 4 61 11 70 11 13 18 11 56 -15 23 -16
49 -29 56 -29 7 0 32 -10 56 -21 42 -20 45 -21 64 -3 11 9 33 39 49 66 38 61
23 71 -47 30 -37 -22 -60 -29 -93 -27 -58 3 -80 13 -80 36 0 15 -7 19 -39 19
-25 0 -41 -5 -45 -15z"/>
<path d="M1922 3613 c-6 -16 -14 -43 -17 -62 l-7 -34 37 6 c21 3 48 15 60 27
27 25 50 27 40 3 -17 -40 -17 -63 -1 -69 16 -6 69 4 110 21 17 8 18 5 12 -28
-6 -34 -5 -37 17 -37 12 0 27 -4 33 -8 5 -5 28 -14 52 -21 51 -14 56 -38 10
-43 -18 -2 -32 -7 -32 -13 1 -5 28 -24 60 -41 62 -33 79 -54 45 -54 -25 0 -25
-3 -6 -39 8 -16 28 -34 45 -40 20 -7 35 -22 45 -44 8 -19 26 -49 41 -66 32
-39 27 -47 -21 -31 -45 15 -55 7 -27 -23 12 -13 22 -28 22 -34 0 -6 7 -16 15
-23 21 -17 19 -30 -5 -30 -38 0 -36 -31 3 -64 43 -36 49 -59 13 -50 -36 9 -41
-12 -12 -47 28 -33 26 -49 -5 -49 -34 0 -33 -29 6 -91 40 -65 40 -81 1 -55
-14 9 -30 16 -36 16 -18 0 -38 -25 -42 -51 -2 -15 -9 -23 -19 -21 -13 2 -15
-6 -11 -48 4 -43 2 -52 -19 -69 -13 -11 -28 -16 -33 -11 -9 9 -66 -37 -66 -54
0 -6 5 -5 12 2 18 18 46 15 51 -5 3 -14 6 -12 15 9 6 15 20 33 32 40 11 7 20
19 20 26 0 7 7 15 15 18 10 4 15 20 15 49 0 24 5 47 11 50 6 4 8 13 5 21 -14
36 25 8 68 -48 63 -84 131 -225 156 -322 36 -143 23 -332 -31 -438 -24 -47
-24 -48 4 -48 14 0 32 -12 46 -31 13 -17 38 -37 57 -45 19 -8 34 -19 34 -24 0
-6 14 -10 30 -10 34 0 62 -27 98 -93 18 -34 22 -58 22 -124 0 -76 2 -83 20
-83 16 0 23 -12 36 -60 13 -46 22 -60 38 -62 15 -2 22 -11 24 -33 2 -16 8 -34
13 -39 13 -15 11 -110 -3 -128 -7 -9 -74 -50 -148 -92 -74 -42 -128 -76 -119
-76 8 0 57 24 109 54 76 44 98 52 108 42 14 -14 55 -191 73 -313 11 -79 13
-83 37 -83 24 0 24 2 18 48 -4 26 -11 92 -17 147 -5 55 -16 126 -24 158 -14
55 -14 59 6 86 20 27 21 34 10 111 -6 45 -9 86 -6 90 3 4 -4 19 -15 33 -11 14
-20 38 -20 53 0 27 -8 39 -73 103 -24 24 -26 32 -21 73 6 41 2 53 -36 119 -54
94 -64 104 -121 135 l-46 26 19 51 c99 258 38 591 -157 856 -34 47 -41 61 -27
57 12 -4 26 0 36 9 26 27 21 37 -41 78 -24 15 -43 28 -43 30 0 1 17 2 37 2 34
0 38 3 41 27 3 23 -4 32 -45 58 -46 30 -47 31 -16 26 45 -8 63 2 63 33 0 22
-8 30 -41 45 -45 20 -48 33 -4 16 74 -28 72 21 -2 92 -34 31 -57 62 -55 71 5
26 -18 58 -51 70 l-32 12 50 5 c44 4 50 8 53 30 2 21 -4 28 -37 42 -22 10 -60
23 -86 29 -57 14 -68 29 -21 29 32 0 66 20 66 39 0 19 -40 40 -98 51 -42 9
-66 19 -73 31 -5 11 -21 19 -34 19 -30 0 -29 -1 -9 38 21 43 15 76 -15 80 -13
2 -26 0 -30 -5 -16 -23 -75 -63 -91 -63 -18 0 -18 2 -5 41 22 62 20 69 -20 69
-26 0 -42 -7 -59 -27 -25 -29 -47 -25 -39 7 9 33 -32 26 -45 -7z"/>
<path d="M2200 2785 c15 -40 13 -47 -12 -34 l-21 11 20 -33 c25 -42 46 -106
39 -118 -3 -5 -25 -5 -52 0 -78 15 -138 13 -187 -6 -37 -14 -47 -23 -53 -47
-5 -25 -1 -36 24 -60 38 -39 78 -40 109 -4 13 15 23 35 23 46 0 37 12 50 45
50 43 0 59 -19 45 -54 -16 -43 -12 -43 16 -2 34 49 46 33 38 -46 -7 -62 4 -77
24 -33 14 31 16 58 3 50 -11 -6 -7 139 3 165 4 9 -7 41 -24 73 -34 61 -56 85
-40 42z"/>
<path d="M1383 2675 c-16 -32 -34 -55 -43 -55 -9 0 -24 -19 -35 -42 -11 -24
-26 -42 -32 -40 -14 2 -15 -18 -5 -56 l7 -23 23 21 c12 11 22 26 22 31 0 6 7
8 15 5 9 -3 18 1 22 10 4 12 14 8 45 -23 l40 -38 -22 42 c-26 51 -23 75 12 87
35 12 58 -6 58 -46 0 -38 40 -78 78 -78 43 0 89 61 73 96 -18 39 -74 57 -158
51 l-73 -5 7 59 c3 32 3 59 -1 59 -3 0 -18 -25 -33 -55z"/>
<path d="M2151 2248 c-28 -71 -147 -180 -265 -242 -59 -31 -89 -32 -151 -5
-25 11 -49 19 -51 16 -3 -2 24 -23 60 -46 73 -48 68 -49 165 20 30 22 60 39
66 39 8 0 15 -25 20 -66 l7 -67 24 26 c27 29 32 46 9 27 -22 -18 -31 -4 -18
30 7 18 7 32 1 38 -16 16 15 64 81 127 34 32 63 66 66 76 3 10 16 21 28 25 21
7 21 7 2 15 -31 12 -35 11 -44 -13z"/>
<path d="M2157 1821 c13 -51 -54 -231 -86 -231 -30 0 -56 27 -85 88 -18 38
-37 62 -50 66 -30 8 -32 -1 -6 -22 25 -21 20 -42 -10 -42 -11 0 -25 -10 -31
-22 -16 -32 -28 -38 -71 -38 -33 0 -38 3 -38 23 0 31 34 84 60 92 20 6 20 8 4
19 -9 7 -14 18 -11 23 4 6 -5 13 -21 16 -15 3 -37 8 -50 12 -24 8 -24 8 2 -20
29 -31 31 -43 15 -97 -10 -39 -26 -47 -47 -26 -10 10 -19 6 -44 -19 l-31 -31
21 -27 c11 -14 30 -68 42 -118 l21 -92 -20 -88 c-10 -48 -25 -95 -33 -104 -7
-9 -14 -28 -14 -42 -1 -14 -11 -72 -23 -129 -17 -86 -21 -138 -21 -312 l0
-210 -254 0 -254 0 -6 35 c-4 20 -4 45 -1 56 4 11 -4 41 -19 73 -29 61 -35
136 -12 159 11 11 12 23 6 53 -14 60 -11 97 10 124 23 29 25 41 8 37 -7 -1
-12 4 -10 12 3 12 0 12 -12 2 -31 -26 -39 -3 -31 91 5 73 4 89 -7 86 -8 -3
-14 -24 -16 -52 l-3 -48 -26 23 c-25 24 -25 23 6 -39 31 -62 36 -99 14 -95 -8
2 -9 -6 -1 -30 16 -50 21 -94 13 -133 l-6 -36 -54 4 c-51 4 -52 4 -32 -12 l21
-17 -32 -134 c-18 -74 -36 -139 -40 -145 -4 -7 -79 -15 -197 -22 -218 -12
-370 -40 -462 -83 -66 -32 -159 -109 -205 -173 -38 -53 -36 -87 9 -137 77 -85
173 -106 314 -69 169 45 221 49 689 49 457 1 561 7 688 41 68 19 77 19 125 5
131 -38 240 -45 692 -45 455 0 561 -6 668 -41 92 -29 183 -35 243 -15 94 31
166 114 145 168 -22 57 -194 190 -308 239 -77 33 -175 49 -372 60 -102 6 -187
12 -188 13 -7 6 -55 209 -57 246 -4 40 -7 45 -34 52 -34 9 -42 28 -42 107 0
74 24 148 72 220 12 19 16 31 9 27 -11 -7 -12 -1 -7 30 l7 39 -30 -52 c-58
-98 -71 -77 -46 73 9 58 14 108 11 111 -3 3 -13 -13 -22 -36 -9 -22 -22 -41
-28 -41 -9 0 -10 -16 -3 -63 10 -65 1 -186 -12 -171 -5 5 -18 47 -31 94 -13
47 -26 88 -30 92 -3 5 -22 0 -43 -11 -41 -21 -39 -33 4 -24 28 5 29 4 29 -36
0 -33 -5 -44 -27 -58 l-27 -18 29 -5 30 -5 3 -105 c2 -58 0 -115 -3 -127 -8
-32 -80 -119 -126 -153 -40 -28 -42 -29 -76 -15 -55 23 -63 17 -14 -10 23 -14
48 -25 53 -25 18 0 166 151 184 187 12 27 18 32 25 22 14 -23 10 -62 -11 -104
-24 -47 -25 -51 -6 -36 23 19 29 -5 10 -44 -9 -20 -48 -65 -86 -100 l-70 -65
-173 0 c-203 0 -183 -19 -185 169 -2 222 -17 361 -55 506 -39 146 -45 196 -26
219 13 16 16 32 27 153 8 88 21 97 77 52 28 -23 44 -30 54 -23 13 8 38 60 68
139 7 19 7 19 16 -4 5 -13 6 -47 3 -75 -8 -63 3 -57 15 8 8 43 5 69 -14 133
-5 16 -3 25 9 29 11 4 29 -8 57 -40 47 -53 65 -55 25 -3 -24 31 -93 87 -108
87 -3 0 -4 -9 -1 -19z m505 -1268 l15 -63 -65 0 -65 0 7 53 c4 28 21 81 39
116 l32 64 11 -54 c6 -30 18 -82 26 -116z m-1624 116 c19 -20 32 -79 32 -145
l0 -34 -61 0 c-45 0 -60 3 -57 13 3 6 16 51 29 99 13 49 27 88 31 88 4 0 16
-9 26 -21z m820 -203 c105 -53 280 -94 467 -111 39 -3 221 -10 405 -15 379
-11 448 -21 547 -75 96 -53 159 -103 140 -111 -26 -10 -116 1 -199 24 -126 34
-290 43 -653 36 -359 -7 -521 2 -648 37 -114 32 -118 32 -208 6 -134 -40 -272
-48 -734 -45 -439 3 -487 -1 -624 -42 -68 -21 -166 -27 -176 -10 -4 6 8 24 26
41 114 106 257 133 769 144 398 8 582 34 749 109 42 19 80 34 84 35 4 1 29
-10 55 -23z"/>
</g>
</svg>
